<?xml version="1.0" encoding="UTF-8"?>
<svg width="369px" height="378px" viewBox="0 0 369 378" version="1.1" xmlns="http://www.w3.org/2000/svg" xmlns:xlink="http://www.w3.org/1999/xlink">
    <polygon fill="#F6F6F6" points="208.414062 2.83650917e-14 222.574219 5.859375 219.644531 20.5078125 229.502182 34.48017 250.894531 51.7578125 270.425781 78.125 282.144531 83.984375 296.792969 80.078125 319.591636 83.984375 331.797563 91.2361541 349.527344 83.984375 363.199219 85.9375 369 91.2361541 368.082031 95.703125 352.457031 99.609375 353.433594 110.351562 344.644531 113.28125 340.023371 110.351562 322.183594 118.164062 325.113281 125 316.324219 126.953125 325.113281 141.601562 319.591636 156.25 331.797563 179.432303 337.808594 176.757812 341.487904 190 349.527344 190 351.336814 203.220172 342.654483 203.220172 342.654483 211.388525 315.347656 228.515625 296.792969 228.515625 282.144531 238.28125 250.894531 233.999561 241.128906 238.28125 238.447247 255.371094 242.105469 257.8125 243.438396 271.720608 267.458664 285.15625 273.355469 293.945312 252.669732 335.841224 208.414062 335.841224 178.082152 363.048212 185.63949 376.657889 166.910156 377.906641 148.564833 363.048212 147.378906 348.632812 136.148437 343.684201 90.4590778 345.896125 74.6250001 361.328125 60.0409839 361.328125 45.8164062 338.867188 18.4726562 342.773438 12.6132812 308.59375 3.82421875 305.664062 2.84765625 298.828125 25.3085938 293.945312 16.5682276 285.15625 17.4960938 271.484375 0.89453125 259.765625 0.89453125 249.511719 31.1679688 220.703125 56.5585938 217.773438 60.0409839 207.03125 74.6250001 213.93648 75.1132813 205.421217 94.168634 185.997995 85.8554688 165.039062 77.0664063 164.0625 60.4648438 145.507812 61.8844946 135.219226 55.5820313 132.8125 59.2306325 119.903478 69.2539063 118.164062 70.2304688 112.304688 85.8554688 103.412242 95.6210938 107.421875 100.503906 113.28125 121.988281 100.585938 131.753906 87.890625 142.007812 63.4765625 152.261719 70.3125 180.173091 66.9326597 159.097656 36.1328125 163.980469 28.3203125 171.313226 36.1328125 184 37.8069751 178.082152 26.3126837 181.558594 18.5546875 199.136719 15.625 206.916449 20.5078125"></polygon>
    <polygon fill="#ECECEC" fill-rule="nonzero" points="136.148437 207.03125 160.074219 205.421217 161.656229 207.03125 213.785156 213.77156 215.362392 231.203267 221.597656 242.1875 229.502182 247.781084 227.542486 262.695313 229.502182 273.4375 225.850163 282.624407 213.785156 293.139996 209.551308 301.757813 203.042969 305.390411 197.183594 305.664063 186.441406 310.296604 172.769531 310.296604 160.074219 316.702706 127.57252 316.702706 119.570688 313.476563 120.035156 297.851563 124.917969 295.898438 121.834847 285.15625 129.33671 271.720608 126.26889 262.695313 122.964844 262.695313 119.570688 246.447317 122.964844 244.140625 121.834847 238.28125 122.964844 234.900878 127.57252 231.203267 131.02826 222.65625 131.02826 211.639541"></polygon>
    <polygon fill="#E2E2E2" fill-rule="nonzero" points="184.79838 241 189.77724 242.655014 200.514522 259.243266 201.766946 281.05134 195.316279 287.266545 189.371094 290.039063 185.621635 295.531955 180.211976 295.531955 177.909147 300.578098 173.440899 302.441215 170.816406 302.441215 169.308269 298.335244 152.08648 299.135529 149.332031 290.783454 139 274.039867 142.007812 246.870024 152.120531 242.1875"></polygon>
    <polygon fill="#D8D8D8" fill-rule="nonzero" points="182.341354 248.122449 191.324219 256.163475 190.091593 281.883841 186.441406 285.15625 154.469673 286.132813 152.120531 274.237986 152.120531 252.929688 155.941974 249.511719"></polygon>
    <polygon fill="#CECECE" fill-rule="nonzero" points="181.597374 252.929688 185.63949 256.798615 185.63949 277.34375 184 279.296875 169.142684 279.296875 164.957031 281.048721 161.014422 281.048721 158.261868 277.34375 158.261868 254.662606 159.802999 253.911608"></polygon>
    <polygon fill="#C4C4C4" fill-rule="nonzero" points="180.582031 257.8125 181.150934 268.615388 182.2281 268.884288 182.2281 276.099977 165.324224 276.749834 164.957031 269.931918 166.910156 269.53125 166.371477 259.387582 169.551029 257.8125"></polygon>
</svg>