<?xml version="1.0" encoding="UTF-8"?>
<svg width="600px" height="400px" viewBox="0 0 600 400" version="1.1" xmlns="http://www.w3.org/2000/svg" xmlns:xlink="http://www.w3.org/1999/xlink">
    <defs>
        <rect id="path-1" x="0" y="0" width="580" height="375"></rect>
    </defs>
    <g id="页面-1" stroke="none" stroke-width="1" fill="none" fill-rule="evenodd">
        <g>
            <rect id="矩形" fill="#FFFFFF" fill-rule="nonzero" x="0" y="0" width="600" height="400"></rect>
            <rect id="矩形" x="10" y="10" width="580" height="375"></rect>
            <rect id="矩形" x="10" y="10" width="580" height="375"></rect>
            <g id="Clipped">
                <mask id="mask-2" fill="white">
                    <use xlink:href="#path-1"></use>
                </mask>
                <g id="矩形"></g>
                <g id="编组" mask="url(#mask-2)">
                    <g transform="translate(115.000000, 10.000000)">
                        <g>
                            <polygon id="路径" stroke="#F6F6F6" fill="#F6F6F6" fill-rule="nonzero" points="182.558594 276.367188 178.652344 276.367188 177.675781 276.367188 178.652344 277.34375 177.675781 279.296875 174.746094 279.296875 174.746094 278.320312 172.792969 277.34375 171.816406 277.34375 171.816406 276.367188 174.746094 276.367188 174.746094 270.507812 174.746094 269.53125 174.746094 267.578125 173.769531 267.578125 173.769531 264.648438 174.746094 264.648438 174.746094 262.695312 174.746094 260.742188 173.769531 259.765625 173.769531 256.835938 172.792969 256.835938 172.792969 255.859375 172.792969 254.882812 174.746094 254.882812 176.699219 254.882812 175.722656 252.929688 176.699219 252.929688 176.699219 254.882812 177.675781 254.882812 179.628906 254.882812 179.628906 255.859375 180.605469 255.859375 179.628906 256.835938 180.605469 257.8125 181.582031 257.8125 181.582031 257.8125 182.558594 257.8125 182.558594 258.789062 183.535156 258.789062 182.558594 259.765625 182.558594 262.695312 181.582031 262.695312 181.582031 269.53125 183.535156 268.554688 183.535156 270.507812 184.511719 271.484375 182.558594 271.484375 183.535156 274.414062"></polygon>
                            <polygon id="路径" stroke="#F6F6F6" fill="#F6F6F6" fill-rule="nonzero" points="162.050781 270.507812 164.003906 270.507812 164.003906 270.507812 163.027344 264.648438 163.027344 260.742188 162.050781 259.765625 163.027344 259.765625 164.003906 259.765625 166.933594 259.765625 165.957031 257.8125 166.933594 259.765625 169.863281 258.789062 169.863281 253.90625 171.816406 253.90625 171.816406 252.929688 173.769531 252.929688 173.769531 253.90625 172.792969 253.90625 172.792969 255.859375 172.792969 256.835938 173.769531 256.835938 173.769531 259.765625 174.746094 260.742188 174.746094 262.695312 174.746094 264.648438 173.769531 264.648438 173.769531 267.578125 174.746094 267.578125 174.746094 269.53125 174.746094 270.507812 174.746094 276.367188 171.816406 276.367188 165.957031 277.34375 165.957031 276.367188 164.980469 276.367188 164.980469 275.390625 163.027344 275.390625 161.074219 275.390625 161.074219 274.414062 162.050781 272.460938"></polygon>
                            <path d="M182.558594,276.367188 L183.535156,274.414062 L182.558594,271.484375 L184.511719,271.484375 L183.535156,270.507812 L183.535156,268.554688 L181.582031,269.53125 L181.582031,262.695312 L182.558594,262.695312 L182.558594,259.765625 L183.535156,258.789062 L182.558594,258.789062 L182.558594,257.8125 L181.582031,257.8125 L181.582031,257.8125 L180.605469,257.8125 L179.628906,256.835938 L180.605469,255.859375 L179.628906,255.859375 L179.628906,254.882812 L177.675781,254.882812 L176.699219,254.882812 L176.699219,252.929688 L175.722656,252.929688 L176.699219,254.882812 L174.746094,254.882812 L172.792969,254.882812 L172.792969,255.859375 L172.792969,253.90625 L173.769531,253.90625 L173.769531,252.929688 L171.816406,252.929688 L171.816406,251.953125 L170.839844,248.046875 L165.957031,240.234375 L167.910156,240.234375 L170.839844,239.257812 L173.769531,239.257812 L172.792969,238.28125 L172.792969,237.304688 L173.769531,237.304688 L173.769531,238.28125 L175.722656,237.304688 L175.722656,236.328125 L175.722656,235.351562 L175.722656,235.351562 L176.699219,233.398438 L177.675781,233.398438 L180.605469,232.421875 L182.558594,232.421875 L183.535156,233.398438 L184.511719,232.421875 L185.488281,232.421875 L185.488281,230.46875 L184.511719,230.46875 L184.511719,228.515625 L185.488281,228.515625 L185.488281,227.539062 L186.464844,227.539062 L186.464844,225.585938 L187.441406,225.585938 L187.441406,226.5625 L189.394531,226.5625 L189.394531,227.539062 L192.324219,227.539062 L194.277344,229.492188 L195.253906,230.46875 L196.230469,229.492188 L197.207031,230.46875 L200.136719,232.421875 L200.136719,231.445312 L201.113281,232.421875 L201.113281,233.398438 L200.136719,234.375 L201.113281,235.351562 L203.066406,236.328125 L205.019531,238.28125 L205.019531,238.28125 L205.996094,239.257812 L205.996094,238.28125 L205.996094,238.28125 L205.996094,239.257812 L209.902344,242.1875 L210.878906,243.164062 L213.808594,243.164062 L214.785156,244.140625 L214.785156,245.117188 L215.761719,246.09375 L216.738281,245.117188 L217.714844,247.070312 L217.714844,248.046875 L217.714844,248.046875 L217.714844,249.023438 L216.738281,249.023438 L216.738281,250 L217.714844,250 L217.714844,251.953125 L217.714844,252.929688 L217.714844,256.835938 L218.691406,258.789062 L215.761719,257.8125 L215.761719,257.8125 L216.738281,259.765625 L215.761719,259.765625 L215.761719,261.71875 L214.785156,261.71875 L215.761719,263.671875 L214.785156,263.671875 L214.785156,265.625 L214.785156,267.578125 L214.785156,268.554688 L213.808594,270.507812 L213.808594,271.484375 L215.761719,271.484375 L215.761719,273.4375 L214.785156,273.4375 L214.785156,274.414062 L214.785156,276.367188 L214.785156,276.367188 L214.785156,277.34375 L215.761719,278.320312 L212.832031,280.273438 L211.855469,280.273438 L211.855469,281.25 L212.832031,281.25 L210.878906,282.226562 L210.878906,284.179688 L210.878906,285.15625 L210.878906,286.132812 L208.925781,286.132812 L209.902344,287.109375 L207.949219,286.132812 L208.925781,286.132812 L206.972656,286.132812 L206.972656,285.15625 L205.996094,284.179688 L203.066406,284.179688 L201.113281,284.179688 L201.113281,285.15625 L199.160156,285.15625 L199.160156,285.15625 L200.136719,286.132812 L199.160156,287.109375 L198.183594,286.132812 L198.183594,285.15625 L196.230469,285.15625 L195.253906,287.109375 L192.324219,289.0625 L192.324219,288.085938 L191.347656,288.085938 L190.371094,289.0625 L190.371094,290.039062 L188.417969,290.039062 L187.441406,289.0625 L186.464844,289.0625 L186.464844,289.0625 L184.511719,287.109375 L183.535156,288.085938 L183.535156,287.109375 L182.558594,286.132812 L180.605469,286.132812 L179.628906,285.15625 L180.605469,285.15625 L181.582031,283.203125 L182.558594,283.203125 L183.535156,282.226562 L183.535156,281.25 L184.511719,281.25 L184.511719,280.273438 L186.464844,281.25 L186.464844,281.25 L187.441406,279.296875 L186.464844,279.296875 L185.488281,278.320312 L183.535156,278.320312 L182.558594,277.34375 L182.558594,276.367188 L182.558594,276.367188 Z M205.996094,223.632812 L205.019531,221.679688 L205.019531,220.703125 L205.996094,222.65625 L206.972656,225.585938 L208.925781,225.585938 L209.902344,224.609375 L209.902344,221.679688 L209.902344,222.65625 L210.878906,225.585938 L211.855469,233.398438 L210.878906,233.398438 L210.878906,235.351562 L209.902344,236.328125 L209.902344,236.328125 L207.949219,236.328125 L208.925781,234.375 L207.949219,231.445312 L207.949219,231.445312 L206.972656,229.492188 L206.972656,230.46875 L205.996094,229.492188 L205.996094,223.632812 Z" id="形状" stroke="#F6F6F6" fill="#F6F6F6" fill-rule="nonzero"></path>
                            <polygon id="路径" stroke="#F6F6F6" fill="#F6F6F6" fill-rule="nonzero" points="171.816406 276.367188 171.816406 277.34375 172.792969 277.34375 174.746094 278.320312 174.746094 279.296875 177.675781 279.296875 178.652344 277.34375 177.675781 276.367188 178.652344 276.367188 182.558594 276.367188 182.558594 277.34375 183.535156 278.320312 185.488281 278.320312 186.464844 279.296875 187.441406 279.296875 186.464844 281.25 186.464844 281.25 184.511719 280.273438 184.511719 281.25 183.535156 281.25 183.535156 282.226562 182.558594 283.203125 181.582031 283.203125 180.605469 285.15625 179.628906 285.15625 178.652344 286.132812 178.652344 286.132812 177.675781 287.109375 178.652344 287.109375 178.652344 289.0625 177.675781 289.0625 177.675781 290.039062 178.652344 290.039062 178.652344 291.015625 179.628906 291.015625 179.628906 291.992188 180.605469 291.992188 180.605469 293.945312 179.628906 293.945312 178.652344 295.898438 174.746094 295.898438 174.746094 296.875 175.722656 300.78125 173.769531 300.78125 173.769531 297.851562 171.816406 297.851562 171.816406 295.898438 169.863281 295.898438 169.863281 293.945312 169.863281 292.96875 167.910156 292.96875 167.910156 291.015625 164.980469 291.015625 164.003906 292.96875 163.027344 292.96875 162.050781 292.96875 162.050781 292.96875 161.074219 294.921875 162.050781 296.875 161.074219 296.875 160.097656 299.804688 158.144531 298.828125 157.167969 297.851562 157.167969 294.921875 156.191406 294.921875 157.167969 293.945312 156.191406 293.945312 156.191406 293.945312 155.214844 292.96875 151.308594 293.945312 151.308594 294.921875 150.332031 293.945312 149.355469 294.921875 148.378906 291.992188 146.425781 289.0625 145.449219 288.085938 144.472656 287.109375 142.519531 288.085938 142.519531 289.0625 142.519531 289.0625 141.542969 291.015625 141.542969 291.992188 140.566406 292.96875 140.566406 295.898438 139.589844 297.851562 137.636719 297.851562 137.636719 297.851562 136.660156 296.875 134.707031 296.875 133.730469 298.828125 132.753906 300.78125 131.777344 300.78125 130.800781 300.78125 130.800781 300.78125 128.847656 300.78125 127.871094 301.757812 125.917969 301.757812 125.917969 299.804688 125.917969 297.851562 126.894531 298.828125 127.871094 297.851562 127.871094 296.875 126.894531 296.875 125.917969 296.875 125.917969 295.898438 123.964844 295.898438 123.964844 296.875 122.988281 296.875 122.988281 297.851562 121.035156 297.851562 121.035156 296.875 121.035156 295.898438 119.082031 294.921875 120.058594 292.96875 119.082031 291.015625 120.058594 290.039062 120.058594 290.039062 120.058594 287.109375 119.082031 286.132812 119.082031 286.132812 117.128906 284.179688 116.152344 284.179688 114.199219 283.203125 114.199219 283.203125 114.199219 282.226562 115.175781 281.25 115.175781 282.226562 116.152344 281.25 117.128906 281.25 117.128906 280.273438 116.152344 278.320312 116.152344 278.320312 118.105469 277.34375 119.082031 278.320312 121.035156 277.34375 122.011719 278.320312 122.988281 277.34375 122.011719 276.367188 123.964844 276.367188 125.917969 275.390625 125.917969 275.390625 128.847656 274.414062 130.800781 273.4375 130.800781 274.414062 131.777344 272.460938 133.730469 273.4375 135.683594 274.414062 138.613281 274.414062 138.613281 274.414062 139.589844 274.414062 140.566406 275.390625 140.566406 276.367188 141.542969 276.367188 141.542969 275.390625 142.519531 275.390625 143.496094 274.414062 143.496094 274.414062 144.472656 274.414062 144.472656 272.460938 146.425781 272.460938 146.425781 275.390625 145.449219 276.367188 146.425781 275.390625 146.425781 272.460938 147.402344 271.484375 148.378906 271.484375 150.332031 270.507812 156.191406 270.507812 156.191406 273.4375 158.144531 271.484375 160.097656 270.507812 162.050781 270.507812 162.050781 272.460938 161.074219 274.414062 161.074219 275.390625 163.027344 275.390625 164.980469 275.390625 164.980469 276.367188 165.957031 276.367188 165.957031 277.34375"></polygon>
                            <polygon id="路径" stroke="#F6F6F6" fill="#F6F6F6" fill-rule="nonzero" points="133.730469 273.4375 133.730469 272.460938 132.753906 270.507812 131.777344 270.507812 130.800781 268.554688 129.824219 267.578125 129.824219 266.601562 128.847656 265.625 126.894531 264.648438 126.894531 263.671875 125.917969 262.695312 124.941406 262.695312 123.964844 260.742188 124.941406 260.742188 123.964844 259.765625 124.941406 258.789062 123.964844 256.835938 124.941406 255.859375 124.941406 255.859375 125.917969 254.882812 124.941406 253.90625 123.964844 251.953125 124.941406 250.976562 129.824219 250 130.800781 249.023438 131.777344 250 131.777344 250.976562 133.730469 250 133.730469 252.929688 135.683594 250.976562 135.683594 250 136.660156 250.976562 136.660156 253.90625 137.636719 254.882812 137.636719 254.882812 139.589844 255.859375 139.589844 256.835938 140.566406 257.8125 140.566406 258.789062 141.542969 258.789062 142.519531 260.742188 142.519531 260.742188 142.519531 262.695312 142.519531 263.671875 140.566406 264.648438 140.566406 266.601562 144.472656 265.625 146.425781 266.601562 146.425781 265.625 148.378906 265.625 149.355469 266.601562 149.355469 270.507812 150.332031 270.507812 148.378906 271.484375 147.402344 271.484375 146.425781 272.460938 146.425781 275.390625 145.449219 276.367188 146.425781 275.390625 146.425781 272.460938 144.472656 272.460938 144.472656 274.414062 143.496094 274.414062 143.496094 274.414062 142.519531 275.390625 141.542969 275.390625 141.542969 276.367188 140.566406 276.367188 140.566406 275.390625 139.589844 274.414062 138.613281 274.414062 138.613281 274.414062 135.683594 274.414062"></polygon>
                            <polygon id="路径" stroke="#F6F6F6" fill="#F6F6F6" fill-rule="nonzero" points="171.816406 252.929687 171.816406 253.90625 169.863281 253.90625 169.863281 258.789062 166.933594 259.765625 165.957031 257.8125 166.933594 259.765625 164.003906 259.765625 163.027344 259.765625 162.050781 259.765625 163.027344 260.742188 163.027344 264.648438 164.003906 270.507812 164.003906 270.507812 162.050781 270.507812 160.097656 270.507812 158.144531 271.484375 156.191406 273.4375 156.191406 270.507812 150.332031 270.507812 149.355469 270.507812 149.355469 266.601562 148.378906 265.625 146.425781 265.625 146.425781 266.601562 144.472656 265.625 140.566406 266.601562 140.566406 264.648438 142.519531 263.671875 142.519531 262.695312 142.519531 260.742188 142.519531 260.742188 141.542969 258.789062 140.566406 258.789062 140.566406 257.8125 139.589844 256.835938 139.589844 255.859375 137.636719 254.882812 137.636719 254.882812 136.660156 253.90625 136.660156 250.976562 135.683594 250 135.683594 250.976562 133.730469 252.929687 133.730469 250 131.777344 250.976562 131.777344 250 130.800781 249.023437 131.777344 248.046875 132.753906 247.070312 134.707031 247.070312 134.707031 246.09375 132.753906 244.140625 132.753906 243.164062 131.777344 242.1875 129.824219 242.1875 128.847656 240.234375 126.894531 240.234375 125.917969 240.234375 123.964844 239.257812 122.011719 240.234375 121.035156 239.257812 120.058594 240.234375 118.105469 240.234375 117.128906 240.234375 117.128906 238.28125 115.175781 235.351562 116.152344 233.398437 115.175781 231.445312 115.175781 230.46875 113.222656 229.492187 112.246094 227.539062 112.246094 227.539062 113.222656 225.585937 114.199219 224.609375 114.199219 223.632812 116.152344 223.632812 116.152344 222.65625 116.152344 220.703125 118.105469 220.703125 118.105469 219.726562 119.082031 219.726562 120.058594 219.726562 122.011719 220.703125 122.011719 219.726562 123.964844 220.703125 125.917969 220.703125 126.894531 220.703125 126.894531 219.726562 130.800781 218.75 132.753906 218.75 132.753906 217.773437 133.730469 217.773437 133.730469 216.796875 132.753906 215.820312 132.753906 213.867187 133.730469 213.867187 135.683594 212.890625 135.683594 211.914062 135.683594 210.9375 136.660156 210.9375 137.636719 209.960937 139.589844 209.960937 139.589844 211.914062 139.589844 211.914062 139.589844 213.867187 140.566406 214.84375 141.542969 213.867187 144.472656 215.820312 147.402344 215.820312 146.425781 219.726562 146.425781 219.726562 146.425781 220.703125 146.425781 221.679687 146.425781 222.65625 148.378906 222.65625 149.355469 222.65625 149.355469 222.65625 149.355469 221.679687 150.332031 221.679687 150.332031 222.65625 149.355469 223.632812 150.332031 224.609375 152.285156 225.585937 153.261719 228.515625 155.214844 227.539062 157.167969 233.398437 158.144531 232.421875 159.121094 233.398437 160.097656 232.421875 161.074219 234.375 162.050781 233.398437 162.050781 232.421875 164.980469 234.375 164.003906 233.398437 164.980469 232.421875 164.980469 232.421875 165.957031 232.421875 165.957031 231.445312 166.933594 231.445312 167.910156 231.445312 167.910156 230.46875 169.863281 230.46875 169.863281 231.445312 171.816406 231.445312 171.816406 232.421875 170.839844 233.398437 169.863281 233.398437 169.863281 234.375 168.886719 234.375 169.863281 236.328125 170.839844 236.328125 170.839844 236.328125 171.816406 236.328125 172.792969 237.304687 172.792969 238.28125 173.769531 239.257812 170.839844 239.257812 167.910156 240.234375 165.957031 240.234375 170.839844 248.046875 171.816406 251.953125"></polygon>
                            <polygon id="路径" stroke="#F6F6F6" fill="#F6F6F6" fill-rule="nonzero" points="77.0898438 213.867188 78.0664063 213.867188 79.0429688 213.867188 80.0195313 214.84375 80.9960938 214.84375 81.9726563 215.820312 85.8789063 215.820312 85.8789063 216.796875 86.8554688 215.820312 89.7851563 216.796875 91.7382813 218.75 93.6914063 222.65625 93.6914063 223.632812 94.6679688 224.609375 95.6445313 225.585938 95.6445313 224.609375 96.6210938 223.632812 96.6210938 225.585938 96.6210938 226.5625 97.5976563 228.515625 97.5976563 230.46875 99.5507813 228.515625 101.503906 228.515625 103.457031 228.515625 104.433594 229.492188 104.433594 228.515625 107.363281 230.46875 109.316406 228.515625 109.316406 229.492188 110.292969 227.539062 111.269531 228.515625 112.246094 227.539062 112.246094 227.539062 113.222656 229.492188 115.175781 230.46875 115.175781 231.445312 116.152344 233.398438 115.175781 235.351562 117.128906 238.28125 117.128906 240.234375 118.105469 240.234375 120.058594 240.234375 121.035156 239.257812 122.011719 240.234375 123.964844 239.257812 125.917969 240.234375 126.894531 240.234375 128.847656 240.234375 129.824219 242.1875 131.777344 242.1875 132.753906 243.164062 132.753906 244.140625 134.707031 246.09375 134.707031 247.070312 132.753906 247.070312 131.777344 248.046875 130.800781 249.023438 129.824219 250 124.941406 250.976562 123.964844 251.953125 124.941406 253.90625 125.917969 254.882812 124.941406 255.859375 124.941406 255.859375 123.964844 256.835938 124.941406 258.789062 123.964844 259.765625 124.941406 260.742188 123.964844 260.742188 124.941406 262.695312 125.917969 262.695312 126.894531 263.671875 126.894531 264.648438 128.847656 265.625 129.824219 266.601562 129.824219 267.578125 130.800781 268.554688 131.777344 270.507812 132.753906 270.507812 133.730469 272.460938 133.730469 273.4375 131.777344 272.460938 130.800781 274.414062 130.800781 273.4375 128.847656 274.414062 125.917969 275.390625 125.917969 275.390625 123.964844 276.367188 122.011719 276.367188 122.988281 277.34375 122.011719 278.320312 121.035156 277.34375 119.082031 278.320312 118.105469 277.34375 116.152344 278.320312 116.152344 278.320312 117.128906 280.273438 117.128906 281.25 116.152344 281.25 115.175781 282.226562 115.175781 281.25 114.199219 282.226562 114.199219 283.203125 112.246094 283.203125 111.269531 283.203125 110.292969 283.203125 108.339844 284.179688 107.363281 284.179688 107.363281 282.226562 105.410156 282.226562 104.433594 283.203125 102.480469 284.179688 101.503906 282.226562 101.503906 281.25 101.503906 280.273438 102.480469 279.296875 101.503906 278.320312 102.480469 278.320312 103.457031 276.367188 102.480469 276.367188 99.5507813 277.34375 100.527344 278.320312 98.5742188 278.320312 98.5742188 277.34375 98.5742188 277.34375 97.5976563 278.320312 95.6445313 278.320312 94.6679688 277.34375 93.6914063 277.34375 92.7148438 276.367188 90.7617188 276.367188 89.7851563 274.414062 92.7148438 271.484375 92.7148438 271.484375 94.6679688 270.507812 93.6914063 269.53125 94.6679688 268.554688 93.6914063 266.601562 92.7148438 266.601562 90.7617188 267.578125 88.8085938 267.578125 86.8554688 267.578125 85.8789063 267.578125 83.9257813 266.601562 82.9492188 267.578125 80.9960938 268.554688 80.9960938 269.53125 79.0429688 270.507812 78.0664063 270.507812 76.1132813 271.484375 75.1367188 270.507812 75.1367188 271.484375 74.1601563 269.53125 73.1835938 268.554688 72.2070313 267.578125 70.2539063 267.578125 69.2773438 266.601562 68.3007813 265.625 67.3242188 266.601562 65.3710938 266.601562 63.4179688 266.601562 63.4179688 265.625 61.4648438 265.625 61.4648438 266.601562 59.5117188 266.601562 59.5117188 267.578125 57.5585938 268.554688 56.5820313 269.53125 54.6289063 269.53125 53.6523438 270.507812 52.6757813 270.507812 48.7695313 271.484375 48.7695313 272.460938 47.7929688 273.4375 46.8164063 274.414062 44.8632813 274.414062 44.8632813 275.390625 42.9101563 275.390625 41.9335938 277.34375 40.9570313 277.34375 39.9804688 278.320312 38.0273438 278.320312 37.0507813 279.296875 37.0507813 280.273438 36.0742188 281.25 35.0976563 284.179688 34.1210938 285.15625 34.1210938 286.132812 34.1210938 286.132812 33.1445313 288.085938 32.1679688 290.039062 31.1914063 290.039062 31.1914063 291.015625 29.2382813 291.992188 27.2851563 291.992188 23.3789063 289.0625 23.3789063 288.085938 21.4257813 288.085938 20.4492188 288.085938 20.4492188 286.132812 17.5195313 286.132812 17.5195313 284.179688 18.4960938 284.179688 19.4726563 281.25 19.4726563 279.296875 20.4492188 278.320312 20.4492188 277.34375 19.4726563 277.34375 18.4960938 276.367188 16.5429688 276.367188 16.5429688 275.390625 19.4726563 271.484375 18.4960938 271.484375 15.5664063 267.578125 14.5898438 267.578125 12.6367188 266.601562 11.6601563 263.671875 9.70703125 262.695312 8.73046875 262.695312 7.75390625 261.71875 6.77734375 260.742188 5.80078125 260.742188 4.82421875 259.765625 3.84765625 259.765625 3.84765625 259.765625 1.89453125 259.765625 1.89453125 258.789062 1.89453125 256.835938 0.91796875 255.859375 1.89453125 253.90625 1.89453125 251.953125 3.84765625 250.976562 4.82421875 250 5.80078125 250 5.80078125 248.046875 4.82421875 247.070312 4.82421875 246.09375 6.77734375 244.140625 6.77734375 242.1875 7.75390625 241.210938 8.73046875 241.210938 10.6835938 240.234375 12.6367188 238.28125 12.6367188 238.28125 14.5898438 236.328125 16.5429688 234.375 16.5429688 233.398438 17.5195313 233.398438 19.4726563 230.46875 21.4257813 230.46875 22.4023438 231.445312 24.3554688 230.46875 24.3554688 229.492188 24.3554688 227.539062 26.3085938 225.585938 26.3085938 226.5625 28.2617188 225.585938 28.2617188 226.5625 29.2382813 226.5625 31.1914063 226.5625 31.1914063 222.65625 31.1914063 223.632812 31.1914063 221.679688 32.1679688 220.703125 33.1445313 220.703125 35.0976563 221.679688 36.0742188 220.703125 37.0507813 221.679688 38.0273438 220.703125 39.0039063 221.679688 39.9804688 220.703125 39.9804688 220.703125 39.9804688 218.75 41.9335938 217.773438 42.9101563 218.75 45.8398438 217.773438 46.8164063 217.773438 47.7929688 217.773438 48.7695313 217.773438 49.7460938 218.75 50.7226563 218.75 52.6757813 218.75 51.6992188 218.75 50.7226563 217.773438 49.7460938 217.773438 51.6992188 216.796875 52.6757813 217.773438 54.6289063 218.75 56.5820313 217.773438 57.5585938 217.773438 58.5351563 215.820312 59.5117188 214.84375 58.5351563 212.890625 59.5117188 209.960938 61.4648438 210.9375 62.4414063 209.960938 63.4179688 207.03125 65.3710938 207.03125 65.3710938 208.984375 66.3476563 208.984375 68.3007813 211.914062 69.2773438 212.890625 72.2070313 212.890625 73.1835938 212.890625 74.1601563 213.867188 74.1601563 212.890625 76.1132813 213.867188"></polygon>
                            <polygon id="路径" stroke="#F6F6F6" fill="#F6F6F6" fill-rule="nonzero" points="144.472656 344.726562 142.519531 344.726562 141.542969 343.75 140.566406 342.773438 139.589844 342.773438 139.589844 341.796875 138.613281 342.773438 138.613281 341.796875 137.636719 341.796875 136.660156 341.796875 136.660156 342.773438 134.707031 343.75 131.777344 343.75 131.777344 345.703125 129.824219 346.679688 129.824219 346.679688 127.871094 346.679688 127.871094 346.679688 126.894531 346.679688 126.894531 345.703125 125.917969 345.703125 124.941406 346.679688 123.964844 346.679688 123.964844 344.726562 122.988281 344.726562 122.988281 344.726562 122.988281 345.703125 112.246094 346.679688 111.269531 345.703125 111.269531 345.703125 109.316406 345.703125 109.316406 342.773438 108.339844 342.773438 107.363281 342.773438 107.363281 343.75 106.386719 343.75 106.386719 344.726562 104.433594 344.726562 104.433594 343.75 103.457031 342.773438 103.457031 341.796875 101.503906 340.820312 100.527344 341.796875 101.503906 345.703125 100.527344 346.679688 99.5507813 346.679688 99.5507813 347.65625 98.5742188 347.65625 97.5976562 348.632812 96.6210937 347.65625 96.6210937 347.65625 95.6445312 345.703125 94.6679688 345.703125 94.6679688 345.703125 93.6914062 344.726562 93.6914062 343.75 93.6914062 343.75 92.7148438 342.773438 92.7148438 342.773438 92.7148438 341.796875 91.7382812 341.796875 91.7382812 340.820312 88.8085938 339.84375 88.8085938 339.84375 87.8320312 342.773438 88.8085938 342.773438 88.8085938 343.75 89.7851562 343.75 88.8085938 345.703125 89.7851562 346.679688 88.8085938 347.65625 86.8554687 346.679688 84.9023438 347.65625 85.8789062 348.632812 85.8789062 350.585938 84.9023438 350.585938 84.9023438 351.5625 83.9257812 351.5625 83.9257812 352.539062 81.9726562 351.5625 81.9726562 352.539062 80.9960938 352.539062 80.9960938 351.5625 80.0195312 351.5625 79.0429688 350.585938 78.0664062 351.5625 78.0664062 351.5625 78.0664062 353.515625 77.0898438 353.515625 74.1601562 353.515625 74.1601562 355.46875 74.1601562 355.46875 73.1835938 356.445312 73.1835938 356.445312 73.1835938 357.421875 74.1601562 358.398438 74.1601562 359.375 73.1835938 359.375 73.1835938 360.351562 75.1367188 360.351562 74.1601562 361.328125 73.1835938 361.328125 68.3007812 361.328125 66.3476562 361.328125 65.3710938 360.351562 65.3710938 360.351562 63.4179688 359.375 64.3945312 361.328125 63.4179688 361.328125 63.4179688 360.351562 62.4414062 360.351562 61.4648438 360.351562 59.5117188 357.421875 58.5351562 355.46875 58.5351562 354.492188 58.5351562 352.539062 56.5820312 352.539062 56.5820312 353.515625 55.6054687 353.515625 55.6054687 350.585938 54.6289062 349.609375 53.6523438 348.632812 51.6992188 348.632812 49.7460938 348.632812 50.7226563 347.65625 51.6992188 347.65625 51.6992188 345.703125 50.7226563 344.726562 50.7226563 344.726562 50.7226563 343.75 49.7460938 341.796875 49.7460938 340.820312 48.7695312 339.84375 46.8164062 338.867188 45.8398438 336.914062 45.8398438 337.890625 44.8632812 338.867188 43.8867188 340.820312 42.9101562 340.820312 40.9570312 340.820312 40.9570312 339.84375 39.9804688 339.84375 39.0039062 340.820312 38.0273438 340.820312 37.0507812 339.84375 36.0742188 340.820312 34.1210938 340.820312 33.1445312 340.820312 33.1445312 340.820312 32.1679688 341.796875 31.1914062 342.773438 28.2617188 342.773438 29.2382812 341.796875 27.2851562 340.820312 27.2851562 339.84375 25.3320312 338.867188 25.3320312 337.890625 24.3554688 336.914062 22.4023438 336.914062 21.4257812 337.890625 21.4257812 338.867188 21.4257812 339.84375 20.4492188 340.820312 19.4726562 341.796875 19.4726562 342.773438 18.4960938 342.773438 17.5195312 339.84375 18.4960938 337.890625 19.4726562 335.9375 19.4726562 335.9375 19.4726562 333.007812 19.4726562 332.03125 18.4960938 331.054688 17.5195312 331.054688 16.5429688 329.101562 14.5898438 329.101562 14.5898438 329.101562 11.6601562 329.101562 11.6601562 328.125 12.6367188 326.171875 13.6132812 325.195312 13.6132812 324.21875 13.6132812 323.242188 13.6132812 322.265625 14.5898438 321.289062 14.5898438 321.289062 15.5664062 319.335938 15.5664062 318.359375 14.5898438 317.382812 13.6132812 317.382812 14.5898438 316.40625 13.6132812 314.453125 13.6132812 310.546875 13.6132812 308.59375 12.6367188 307.617188 10.6835938 307.617188 9.70703125 308.59375 7.75390625 307.617188 4.82421875 305.664062 3.84765625 302.734375 3.84765625 301.757812 2.87109375 301.757812 2.87109375 301.757812 1.89453125 300.78125 2.87109375 300.78125 3.84765625 298.828125 4.82421875 297.851562 6.77734375 298.828125 7.75390625 298.828125 10.6835938 296.875 12.6367188 294.921875 13.6132812 295.898438 14.5898438 296.875 16.5429688 298.828125 17.5195312 296.875 21.4257812 296.875 22.4023438 295.898438 25.3320312 295.898438 26.3085938 293.945312 27.2851562 293.945312 27.2851562 291.992188 27.2851562 291.992188 29.2382812 291.992188 31.1914062 291.015625 31.1914062 290.039062 32.1679688 290.039062 33.1445312 288.085938 34.1210938 286.132812 34.1210938 286.132812 34.1210938 285.15625 35.0976562 284.179688 36.0742188 281.25 37.0507812 280.273438 37.0507812 279.296875 38.0273438 278.320312 39.9804688 278.320312 40.9570312 277.34375 41.9335938 277.34375 42.9101562 275.390625 44.8632812 275.390625 44.8632812 274.414062 46.8164062 274.414062 47.7929688 273.4375 48.7695312 272.460938 48.7695312 271.484375 52.6757812 270.507812 53.6523438 270.507812 54.6289062 269.53125 56.5820312 269.53125 57.5585938 268.554688 59.5117188 267.578125 59.5117188 266.601562 61.4648438 266.601562 61.4648438 265.625 63.4179688 265.625 63.4179688 266.601562 65.3710938 266.601562 67.3242188 266.601562 68.3007812 265.625 69.2773438 266.601562 70.2539062 267.578125 72.2070312 267.578125 73.1835938 268.554688 74.1601562 269.53125 75.1367188 271.484375 75.1367188 270.507812 76.1132812 271.484375 78.0664062 270.507812 79.0429688 270.507812 80.9960938 269.53125 80.9960938 268.554688 82.9492188 267.578125 83.9257812 266.601562 85.8789062 267.578125 86.8554687 267.578125 88.8085938 267.578125 90.7617188 267.578125 92.7148438 266.601562 93.6914062 266.601562 94.6679688 268.554688 93.6914062 269.53125 94.6679688 270.507812 92.7148438 271.484375 92.7148438 271.484375 89.7851562 274.414062 90.7617188 276.367188 92.7148438 276.367188 93.6914062 277.34375 94.6679688 277.34375 95.6445312 278.320312 97.5976562 278.320312 98.5742188 277.34375 98.5742188 277.34375 98.5742188 278.320312 100.527344 278.320312 99.5507813 277.34375 102.480469 276.367188 103.457031 276.367188 102.480469 278.320312 101.503906 278.320312 102.480469 279.296875 101.503906 280.273438 101.503906 281.25 101.503906 282.226562 102.480469 284.179688 104.433594 283.203125 105.410156 282.226562 107.363281 282.226562 107.363281 284.179688 108.339844 284.179688 110.292969 283.203125 111.269531 283.203125 112.246094 283.203125 114.199219 283.203125 114.199219 283.203125 116.152344 284.179688 117.128906 284.179688 119.082031 286.132812 119.082031 286.132812 120.058594 287.109375 120.058594 290.039062 120.058594 290.039062 119.082031 291.015625 120.058594 292.96875 119.082031 294.921875 121.035156 295.898438 121.035156 296.875 121.035156 297.851562 122.988281 297.851562 122.988281 296.875 123.964844 296.875 123.964844 295.898438 125.917969 295.898438 125.917969 296.875 126.894531 296.875 127.871094 296.875 127.871094 297.851562 126.894531 298.828125 125.917969 297.851562 125.917969 299.804688 125.917969 301.757812 127.871094 301.757812 128.847656 300.78125 130.800781 300.78125 130.800781 300.78125 131.777344 300.78125 132.753906 300.78125 133.730469 298.828125 134.707031 296.875 136.660156 296.875 137.636719 297.851562 137.636719 297.851562 139.589844 297.851562 140.566406 295.898438 140.566406 292.96875 141.542969 291.992188 141.542969 291.015625 142.519531 289.0625 142.519531 289.0625 142.519531 288.085938 144.472656 287.109375 145.449219 288.085938 146.425781 289.0625 148.378906 291.992188 149.355469 294.921875 148.378906 294.921875 149.355469 298.828125 149.355469 301.757812 149.355469 304.6875 147.402344 306.640625 148.378906 309.570312 148.378906 311.523438 147.402344 312.5 145.449219 314.453125 145.449219 316.40625 144.472656 317.382812 145.449219 318.359375 143.496094 320.3125 143.496094 321.289062 144.472656 322.265625 143.496094 323.242188 144.472656 324.21875 143.496094 327.148438 143.496094 329.101562 143.496094 332.03125 143.496094 333.007812 143.496094 333.984375 143.496094 334.960938 143.496094 335.9375 143.496094 336.914062 145.449219 340.820312 145.449219 342.773438"></polygon>
                            <polygon id="路径" stroke="#F6F6F6" fill="#F6F6F6" fill-rule="nonzero" points="234.316406 332.03125 233.339844 331.054688 233.339844 329.101562 232.363281 329.101562 231.386719 329.101562 230.410156 328.125 230.410156 326.171875 229.433594 324.21875 230.410156 322.265625 230.410156 321.289062 228.457031 320.3125 228.457031 320.3125 226.503906 320.3125 225.527344 321.289062 224.550781 320.3125 223.574219 321.289062 223.574219 319.335938 223.574219 319.335938 223.574219 318.359375 221.621094 317.382812 221.621094 318.359375 220.644531 317.382812 220.644531 316.40625 219.667969 316.40625 219.667969 315.429688 219.667969 314.453125 220.644531 314.453125 220.644531 313.476562 219.667969 312.5 218.691406 311.523438 217.714844 309.570312 216.738281 309.570312 215.761719 308.59375 214.785156 308.59375 214.785156 309.570312 214.785156 309.570312 211.855469 310.546875 211.855469 312.5 209.902344 312.5 209.902344 312.5 207.949219 312.5 207.949219 312.5 206.972656 313.476562 206.972656 311.523438 202.089844 311.523438 200.136719 312.5 199.160156 312.5 199.160156 311.523438 198.183594 311.523438 199.160156 310.546875 200.136719 311.523438 200.136719 310.546875 200.136719 308.59375 199.160156 308.59375 199.160156 306.640625 200.136719 306.640625 199.160156 305.664062 198.183594 305.664062 200.136719 302.734375 201.113281 301.757812 202.089844 300.78125 204.042969 298.828125 206.972656 298.828125 209.902344 297.851562 209.902344 294.921875 208.925781 294.921875 208.925781 293.945312 206.972656 293.945312 204.042969 292.96875 203.066406 293.945312 202.089844 292.96875 200.136719 289.0625 200.136719 289.0625 199.160156 287.109375 200.136719 287.109375 199.160156 287.109375 200.136719 286.132812 199.160156 285.15625 199.160156 285.15625 201.113281 285.15625 201.113281 284.179688 203.066406 284.179688 205.996094 284.179688 206.972656 285.15625 206.972656 286.132812 208.925781 286.132812 207.949219 286.132812 209.902344 287.109375 208.925781 286.132812 210.878906 286.132812 210.878906 285.15625 210.878906 284.179688 210.878906 282.226562 212.832031 281.25 211.855469 281.25 211.855469 280.273438 212.832031 280.273438 215.761719 278.320312 214.785156 277.34375 214.785156 276.367188 214.785156 276.367188 214.785156 274.414062 214.785156 273.4375 215.761719 273.4375 215.761719 271.484375 213.808594 271.484375 213.808594 270.507812 214.785156 268.554688 214.785156 267.578125 214.785156 265.625 214.785156 263.671875 215.761719 263.671875 214.785156 261.71875 215.761719 261.71875 215.761719 259.765625 216.738281 259.765625 215.761719 257.8125 215.761719 257.8125 218.691406 258.789062 217.714844 256.835938 217.714844 252.929688 217.714844 251.953125 217.714844 250 216.738281 250 216.738281 249.023438 217.714844 249.023438 217.714844 248.046875 217.714844 248.046875 217.714844 247.070312 216.738281 245.117188 215.761719 246.09375 214.785156 245.117188 214.785156 244.140625 213.808594 243.164062 210.878906 243.164062 209.902344 242.1875 210.878906 242.1875 210.878906 239.257812 211.855469 239.257812 212.832031 238.28125 212.832031 239.257812 213.808594 240.234375 213.808594 241.210938 214.785156 240.234375 214.785156 241.210938 215.761719 240.234375 216.738281 241.210938 219.667969 240.234375 219.667969 241.210938 219.667969 241.210938 220.644531 241.210938 221.621094 241.210938 222.597656 242.1875 225.527344 242.1875 225.527344 244.140625 225.527344 244.140625 225.527344 242.1875 227.480469 242.1875 228.457031 241.210938 229.433594 240.234375 229.433594 239.257812 230.410156 240.234375 231.386719 241.210938 231.386719 240.234375 232.363281 241.210938 232.363281 240.234375 233.339844 240.234375 233.339844 240.234375 234.316406 239.257812 236.269531 240.234375 236.269531 240.234375 237.246094 241.210938 237.246094 242.1875 241.152344 242.1875 240.175781 243.164062 241.152344 245.117188 241.152344 247.070312 240.175781 250 240.175781 250.976562 239.199219 252.929688 238.222656 254.882812 239.199219 255.859375 242.128906 256.835938 243.105469 257.8125 243.105469 260.742188 243.105469 261.71875 243.105469 266.601562 243.105469 268.554688 243.105469 270.507812 244.082031 271.484375 245.058594 272.460938 247.011719 273.4375 247.011719 272.460938 247.988281 272.460938 247.988281 270.507812 248.964844 270.507812 248.964844 272.460938 248.964844 273.4375 250.917969 273.4375 250.917969 273.4375 252.871094 276.367188 253.847656 276.367188 254.824219 278.320312 255.800781 278.320312 256.777344 280.273438 257.753906 280.273438 257.753906 281.25 258.730469 281.25 260.683594 281.25 260.683594 281.25 261.660156 281.25 263.613281 284.179688 264.589844 284.179688 265.566406 283.203125 264.589844 282.226562 264.589844 280.273438 266.542969 279.296875 267.519531 280.273438 268.496094 283.203125 269.472656 286.132812 269.472656 288.085938 269.472656 289.0625 272.402344 291.015625 270.449219 291.015625 271.425781 292.96875 273.378906 292.96875 274.355469 293.945312 273.378906 294.921875 273.378906 295.898438 272.402344 296.875 271.425781 295.898438 270.449219 294.921875 268.496094 295.898438 267.519531 296.875 268.496094 298.828125 266.542969 299.804688 266.542969 298.828125 264.589844 299.804688 264.589844 301.757812 265.566406 301.757812 266.542969 303.710938 267.519531 304.6875 266.542969 304.6875 266.542969 305.664062 267.519531 305.664062 267.519531 306.640625 266.542969 306.640625 265.566406 307.617188 264.589844 308.59375 262.636719 308.59375 261.660156 310.546875 262.636719 311.523438 262.636719 312.5 263.613281 315.429688 263.613281 316.40625 262.636719 316.40625 262.636719 317.382812 265.566406 316.40625 266.542969 318.359375 265.566406 318.359375 266.542969 319.335938 263.613281 320.3125 261.660156 320.3125 260.683594 321.289062 258.730469 321.289062 257.753906 322.265625 255.800781 322.265625 256.777344 325.195312 253.847656 327.148438 254.824219 327.148438 252.871094 327.148438 253.847656 328.125 251.894531 329.101562 252.871094 329.101562 251.894531 330.078125 253.847656 332.03125 253.847656 333.007812 253.847656 333.984375 251.894531 333.984375 251.894531 333.984375 250.917969 333.007812 248.964844 333.984375 247.988281 334.960938 246.035156 334.960938 246.035156 336.914062 246.035156 336.914062 246.035156 338.867188 245.058594 338.867188 245.058594 338.867188 244.082031 338.867188 243.105469 337.890625 243.105469 336.914062 241.152344 334.960938 238.222656 333.007812 237.246094 333.984375 236.269531 333.984375 235.292969 333.984375 235.292969 333.007812"></polygon>
                            <path d="M274.355469,233.398438 L271.425781,235.351562 L271.425781,233.398438 L270.449219,234.375 L270.449219,233.398438 L269.472656,233.398438 L268.496094,232.421875 L267.519531,234.375 L266.542969,234.375 L265.566406,233.398438 L264.589844,233.398438 L263.613281,234.375 L261.660156,234.375 L259.707031,234.375 L258.730469,235.351562 L257.753906,235.351562 L255.800781,233.398438 L254.824219,232.421875 L254.824219,233.398438 L250.917969,233.398438 L250.917969,234.375 L249.941406,234.375 L249.941406,236.328125 L248.964844,236.328125 L248.964844,239.257812 L247.988281,238.28125 L246.035156,238.28125 L246.035156,239.257812 L244.082031,238.28125 L244.082031,237.304688 L242.128906,237.304688 L242.128906,238.28125 L242.128906,239.257812 L241.152344,242.1875 L237.246094,242.1875 L237.246094,241.210938 L236.269531,240.234375 L236.269531,240.234375 L234.316406,239.257812 L233.339844,240.234375 L233.339844,240.234375 L232.363281,240.234375 L232.363281,241.210938 L231.386719,240.234375 L231.386719,241.210938 L230.410156,240.234375 L229.433594,239.257812 L229.433594,240.234375 L228.457031,241.210938 L227.480469,242.1875 L225.527344,242.1875 L225.527344,244.140625 L225.527344,244.140625 L225.527344,242.1875 L222.597656,242.1875 L221.621094,241.210938 L220.644531,241.210938 L219.667969,241.210938 L219.667969,241.210938 L219.667969,240.234375 L216.738281,241.210938 L215.761719,240.234375 L214.785156,241.210938 L214.785156,240.234375 L213.808594,241.210938 L213.808594,240.234375 L212.832031,239.257812 L212.832031,238.28125 L213.808594,237.304688 L214.785156,236.328125 L214.785156,236.328125 L214.785156,234.375 L213.808594,225.585938 L213.808594,223.632812 L210.878906,223.632812 L210.878906,222.65625 L209.902344,222.65625 L209.902344,221.679688 L209.902344,224.609375 L208.925781,225.585938 L206.972656,225.585938 L205.996094,222.65625 L205.019531,220.703125 L205.019531,221.679688 L205.996094,223.632812 L204.042969,223.632812 L204.042969,229.492188 L205.019531,230.46875 L205.996094,230.46875 L205.019531,233.398438 L205.996094,233.398438 L205.996094,234.375 L205.019531,234.375 L205.019531,237.304688 L205.019531,238.28125 L203.066406,236.328125 L201.113281,235.351562 L200.136719,234.375 L201.113281,233.398438 L201.113281,232.421875 L200.136719,231.445312 L200.136719,232.421875 L197.207031,230.46875 L196.230469,229.492188 L195.253906,230.46875 L194.277344,229.492188 L192.324219,227.539062 L189.394531,227.539062 L189.394531,226.5625 L187.441406,226.5625 L187.441406,225.585938 L186.464844,225.585938 L185.488281,224.609375 L187.441406,223.632812 L188.417969,223.632812 L190.371094,223.632812 L190.371094,221.679688 L190.371094,217.773438 L189.394531,217.773438 L189.394531,213.867188 L188.417969,213.867188 L188.417969,212.890625 L189.394531,211.914062 L189.394531,211.914062 L189.394531,209.960938 L188.417969,208.984375 L187.441406,209.960938 L188.417969,207.03125 L188.417969,207.03125 L189.394531,205.078125 L189.394531,205.078125 L189.394531,204.101562 L189.394531,202.148438 L189.394531,201.171875 L186.464844,199.21875 L186.464844,197.265625 L187.441406,197.265625 L187.441406,195.3125 L187.441406,194.335938 L189.394531,194.335938 L188.417969,189.453125 L190.371094,188.476562 L191.347656,188.476562 L191.347656,188.476562 L192.324219,188.476562 L192.324219,186.523438 L192.324219,185.546875 L193.300781,186.523438 L194.277344,186.523438 L194.277344,186.523438 L196.230469,186.523438 L196.230469,185.546875 L198.183594,185.546875 L199.160156,184.570312 L198.183594,182.617188 L199.160156,182.617188 L203.066406,182.617188 L203.066406,182.617188 L204.042969,182.617188 L204.042969,183.59375 L205.996094,183.59375 L206.972656,184.570312 L206.972656,183.59375 L207.949219,184.570312 L208.925781,184.570312 L209.902344,186.523438 L209.902344,186.523438 L209.902344,187.5 L211.855469,187.5 L212.832031,188.476562 L213.808594,187.5 L213.808594,185.546875 L215.761719,185.546875 L215.761719,186.523438 L216.738281,185.546875 L216.738281,186.523438 L217.714844,185.546875 L221.621094,185.546875 L221.621094,187.5 L222.597656,188.476562 L221.621094,189.453125 L221.621094,191.40625 L222.597656,190.429688 L223.574219,191.40625 L224.550781,191.40625 L225.527344,190.429688 L226.503906,189.453125 L226.503906,188.476562 L227.480469,187.5 L227.480469,186.523438 L229.433594,186.523438 L233.339844,179.6875 L234.316406,179.6875 L234.316406,180.664062 L233.339844,181.640625 L234.316406,180.664062 L236.269531,181.640625 L238.222656,183.59375 L239.199219,182.617188 L240.175781,183.59375 L240.175781,183.59375 L242.128906,182.617188 L242.128906,180.664062 L242.128906,180.664062 L242.128906,178.710938 L244.082031,178.710938 L245.058594,178.710938 L246.035156,179.6875 L247.011719,178.710938 L247.011719,179.6875 L248.964844,179.6875 L248.964844,177.734375 L249.941406,176.757812 L249.941406,175.78125 L249.941406,174.804688 L250.917969,173.828125 L252.871094,173.828125 L253.847656,174.804688 L254.824219,177.734375 L254.824219,177.734375 L257.753906,177.734375 L257.753906,179.6875 L258.730469,181.640625 L257.753906,183.59375 L258.730469,184.570312 L258.730469,185.546875 L259.707031,186.523438 L259.707031,186.523438 L261.660156,188.476562 L261.660156,189.453125 L262.636719,190.429688 L261.660156,191.40625 L262.636719,192.382812 L263.613281,192.382812 L263.613281,193.359375 L265.566406,194.335938 L265.566406,193.359375 L266.542969,194.335938 L267.519531,193.359375 L268.496094,191.40625 L268.496094,192.382812 L269.472656,193.359375 L269.472656,196.289062 L268.496094,196.289062 L267.519531,196.289062 L268.496094,197.265625 L269.472656,200.195312 L271.425781,200.195312 L271.425781,202.148438 L271.425781,202.148438 L271.425781,204.101562 L272.402344,204.101562 L272.402344,204.101562 L274.355469,204.101562 L273.378906,206.054688 L275.332031,207.03125 L275.332031,208.984375 L277.285156,209.960938 L276.308594,210.9375 L276.308594,211.914062 L275.332031,212.890625 L275.332031,214.84375 L274.355469,215.820312 L275.332031,215.820312 L275.332031,217.773438 L276.308594,218.75 L276.308594,218.75 L276.308594,220.703125 L275.332031,221.679688 L276.308594,221.679688 L276.308594,222.65625 L277.285156,223.632812 L278.261719,224.609375 L277.285156,224.609375 L277.285156,225.585938 L278.261719,226.5625 L278.261719,228.515625 L277.285156,228.515625 L277.285156,229.492188 L276.308594,229.492188 L275.332031,230.46875 L274.355469,230.46875 L274.355469,233.398438 L274.355469,233.398438 Z M212.832031,238.28125 L211.855469,239.257812 L210.878906,239.257812 L210.878906,242.1875 L209.902344,242.1875 L205.996094,239.257812 L205.996094,238.28125 L205.996094,238.28125 L205.996094,239.257812 L205.019531,238.28125 L205.019531,238.28125 L205.019531,237.304688 L205.019531,234.375 L205.996094,234.375 L205.996094,233.398438 L205.019531,233.398438 L205.996094,230.46875 L205.019531,230.46875 L204.042969,229.492188 L204.042969,223.632812 L205.996094,223.632812 L205.996094,229.492188 L206.972656,230.46875 L206.972656,229.492188 L207.949219,231.445312 L207.949219,231.445312 L208.925781,234.375 L207.949219,236.328125 L209.902344,236.328125 L209.902344,236.328125 L210.878906,235.351562 L210.878906,233.398438 L211.855469,233.398438 L210.878906,225.585938 L209.902344,222.65625 L210.878906,222.65625 L210.878906,223.632812 L213.808594,223.632812 L213.808594,225.585938 L214.785156,234.375 L214.785156,236.328125 L214.785156,236.328125 L213.808594,237.304688 L212.832031,238.28125 Z" id="形状" stroke="#F6F6F6" fill="#F6F6F6" fill-rule="nonzero"></path>
                            <polygon id="路径" stroke="#F6F6F6" fill="#F6F6F6" fill-rule="nonzero" points="112.246094 227.539062 111.269531 228.515625 110.292969 227.539062 109.316406 229.492188 109.316406 228.515625 107.363281 230.46875 104.433594 228.515625 104.433594 229.492188 103.457031 228.515625 101.503906 228.515625 99.5507813 228.515625 97.5976563 230.46875 97.5976563 228.515625 96.6210938 226.5625 96.6210938 225.585938 96.6210938 223.632812 95.6445313 224.609375 95.6445313 225.585938 94.6679688 224.609375 93.6914063 223.632812 93.6914063 222.65625 91.7382813 218.75 89.7851563 216.796875 86.8554688 215.820312 85.8789063 216.796875 85.8789063 215.820312 81.9726563 215.820312 80.9960938 214.84375 80.0195313 214.84375 79.0429688 213.867188 78.0664063 213.867188 77.0898438 213.867188 77.0898438 211.914062 76.1132813 209.960938 76.1132813 208.984375 76.1132813 208.984375 77.0898438 206.054688 76.1132813 205.078125 77.0898438 204.101562 79.0429688 205.078125 80.0195313 205.078125 80.9960938 203.125 80.9960938 203.125 80.9960938 201.171875 82.9492188 200.195312 81.9726563 199.21875 82.9492188 199.21875 81.9726563 198.242188 83.9257813 195.3125 83.9257813 195.3125 84.9023438 193.359375 84.9023438 193.359375 86.8554688 193.359375 87.8320313 193.359375 87.8320313 191.40625 87.8320313 190.429688 91.7382813 188.476562 92.7148438 189.453125 93.6914063 188.476562 95.6445313 188.476562 96.6210938 187.5 97.5976563 186.523438 96.6210938 186.523438 98.5742188 184.570312 99.5507813 183.59375 99.5507813 182.617188 99.5507813 181.640625 98.5742188 179.6875 99.5507813 178.710938 101.503906 178.710938 100.527344 177.734375 99.5507813 176.757812 98.5742188 176.757812 98.5742188 175.78125 97.5976563 173.828125 99.5507813 173.828125 99.5507813 172.851562 101.503906 171.875 102.480469 171.875 103.457031 170.898438 104.433594 169.921875 106.386719 169.921875 107.363281 172.851562 107.363281 173.828125 108.339844 175.78125 110.292969 174.804688 110.292969 173.828125 112.246094 174.804688 113.222656 172.851562 112.246094 171.875 113.222656 169.921875 114.199219 169.921875 116.152344 168.945312 117.128906 169.921875 118.105469 170.898438 120.058594 170.898438 122.011719 170.898438 122.988281 172.851562 122.988281 172.851562 124.941406 174.804688 125.917969 174.804688 126.894531 174.804688 127.871094 173.828125 126.894531 172.851562 126.894531 170.898438 127.871094 169.921875 126.894531 169.921875 126.894531 168.945312 127.871094 167.96875 126.894531 166.992188 127.871094 166.992188 128.847656 168.945312 128.847656 169.921875 129.824219 168.945312 130.800781 167.96875 129.824219 166.015625 128.847656 166.015625 128.847656 165.039062 128.847656 164.0625 130.800781 162.109375 132.753906 162.109375 132.753906 162.109375 133.730469 161.132812 134.707031 162.109375 136.660156 161.132812 139.589844 160.15625 139.589844 159.179688 142.519531 159.179688 143.496094 160.15625 144.472656 160.15625 145.449219 160.15625 145.449219 159.179688 146.425781 160.15625 147.402344 160.15625 147.402344 159.179688 148.378906 158.203125 149.355469 159.179688 150.332031 158.203125 152.285156 160.15625 154.238281 159.179688 154.238281 158.203125 154.238281 156.25 154.238281 156.25 155.214844 158.203125 156.191406 157.226562 158.144531 157.226562 159.121094 157.226562 160.097656 157.226562 162.050781 159.179688 164.003906 160.15625 165.957031 161.132812 165.957031 162.109375 164.980469 162.109375 164.003906 164.0625 165.957031 164.0625 166.933594 164.0625 167.910156 164.0625 167.910156 166.015625 166.933594 166.015625 167.910156 167.96875 167.910156 168.945312 167.910156 169.921875 169.863281 168.945312 168.886719 168.945312 170.839844 167.96875 172.792969 168.945312 172.792969 168.945312 173.769531 168.945312 174.746094 168.945312 174.746094 169.921875 176.699219 169.921875 177.675781 169.921875 178.652344 170.898438 179.628906 170.898438 180.605469 169.921875 181.582031 171.875 182.558594 171.875 183.535156 173.828125 181.582031 176.757812 182.558594 176.757812 182.558594 178.710938 182.558594 180.664062 183.535156 180.664062 184.511719 179.6875 186.464844 180.664062 186.464844 181.640625 187.441406 181.640625 188.417969 182.617188 188.417969 184.570312 190.371094 185.546875 192.324219 185.546875 192.324219 185.546875 192.324219 186.523438 192.324219 188.476562 191.347656 188.476562 191.347656 188.476562 190.371094 188.476562 188.417969 189.453125 189.394531 194.335938 187.441406 194.335938 187.441406 195.3125 187.441406 197.265625 186.464844 197.265625 186.464844 199.21875 189.394531 201.171875 189.394531 202.148438 189.394531 204.101562 189.394531 205.078125 189.394531 205.078125 188.417969 207.03125 188.417969 207.03125 187.441406 209.960938 188.417969 208.984375 189.394531 209.960938 189.394531 211.914062 189.394531 211.914062 188.417969 212.890625 188.417969 213.867188 189.394531 213.867188 189.394531 217.773438 190.371094 217.773438 190.371094 221.679688 190.371094 223.632812 188.417969 223.632812 187.441406 223.632812 185.488281 224.609375 186.464844 225.585938 186.464844 227.539062 185.488281 227.539062 185.488281 228.515625 184.511719 228.515625 184.511719 230.46875 185.488281 230.46875 185.488281 232.421875 184.511719 232.421875 183.535156 233.398438 182.558594 232.421875 180.605469 232.421875 177.675781 233.398438 176.699219 233.398438 175.722656 235.351562 175.722656 235.351562 175.722656 236.328125 175.722656 237.304688 173.769531 238.28125 173.769531 237.304688 172.792969 237.304688 171.816406 236.328125 170.839844 236.328125 170.839844 236.328125 169.863281 236.328125 168.886719 234.375 169.863281 234.375 169.863281 233.398438 170.839844 233.398438 171.816406 232.421875 171.816406 231.445312 169.863281 231.445312 169.863281 230.46875 167.910156 230.46875 167.910156 231.445312 166.933594 231.445312 165.957031 231.445312 165.957031 232.421875 164.980469 232.421875 164.980469 232.421875 164.003906 233.398438 164.980469 234.375 162.050781 232.421875 162.050781 233.398438 161.074219 234.375 160.097656 232.421875 159.121094 233.398438 158.144531 232.421875 157.167969 233.398438 155.214844 227.539062 153.261719 228.515625 152.285156 225.585938 150.332031 224.609375 149.355469 223.632812 150.332031 222.65625 150.332031 221.679688 149.355469 221.679688 149.355469 222.65625 149.355469 222.65625 148.378906 222.65625 146.425781 222.65625 146.425781 221.679688 146.425781 220.703125 146.425781 219.726562 146.425781 219.726562 147.402344 215.820312 144.472656 215.820312 141.542969 213.867188 140.566406 214.84375 139.589844 213.867188 139.589844 211.914062 139.589844 211.914062 139.589844 209.960938 137.636719 209.960938 136.660156 210.9375 135.683594 210.9375 135.683594 211.914062 135.683594 212.890625 133.730469 213.867188 132.753906 213.867188 132.753906 215.820312 133.730469 216.796875 133.730469 217.773438 132.753906 217.773438 132.753906 218.75 130.800781 218.75 126.894531 219.726562 126.894531 220.703125 125.917969 220.703125 123.964844 220.703125 122.011719 219.726562 122.011719 220.703125 120.058594 219.726562 119.082031 219.726562 118.105469 219.726562 118.105469 220.703125 116.152344 220.703125 116.152344 222.65625 116.152344 223.632812 114.199219 223.632812 114.199219 224.609375 113.222656 225.585938"></polygon>
                            <polygon id="路径" stroke="#F6F6F6" fill="#F6F6F6" fill-rule="nonzero" points="234.316406 332.03125 233.339844 333.007812 232.363281 333.007812 231.386719 333.984375 230.410156 333.007812 229.433594 333.007812 230.410156 335.9375 233.339844 336.914062 233.339844 337.890625 234.316406 338.867188 234.316406 339.84375 230.410156 340.820312 229.433594 339.84375 229.433594 338.867188 229.433594 338.867188 228.457031 337.890625 227.480469 338.867188 224.550781 336.914062 224.550781 336.914062 222.597656 336.914062 221.621094 337.890625 221.621094 337.890625 219.667969 338.867188 219.667969 337.890625 217.714844 336.914062 217.714844 337.890625 216.738281 337.890625 215.761719 337.890625 215.761719 336.914062 214.785156 336.914062 214.785156 334.960938 213.808594 334.960938 213.808594 333.984375 212.832031 333.984375 212.832031 333.007812 211.855469 333.007812 211.855469 333.984375 210.878906 333.984375 209.902344 333.007812 207.949219 333.007812 207.949219 333.984375 205.996094 333.984375 205.996094 334.960938 205.996094 335.9375 205.996094 335.9375 205.996094 337.890625 205.019531 337.890625 204.042969 337.890625 203.066406 339.84375 202.089844 338.867188 202.089844 337.890625 201.113281 337.890625 201.113281 339.84375 199.160156 338.867188 199.160156 338.867188 198.183594 339.84375 198.183594 339.84375 198.183594 340.820312 198.183594 341.796875 197.207031 342.773438 198.183594 343.75 199.160156 343.75 199.160156 344.726562 198.183594 344.726562 197.207031 346.679688 196.230469 346.679688 196.230469 347.65625 195.253906 347.65625 195.253906 349.609375 192.324219 350.585938 192.324219 349.609375 189.394531 349.609375 189.394531 349.609375 189.394531 351.5625 190.371094 351.5625 190.371094 353.515625 188.417969 353.515625 187.441406 354.492188 188.417969 355.46875 186.464844 355.46875 186.464844 355.46875 183.535156 355.46875 182.558594 355.46875 183.535156 356.445312 183.535156 358.398438 184.511719 358.398438 184.511719 359.375 182.558594 360.351562 182.558594 359.375 180.605469 359.375 180.605469 358.398438 180.605469 356.445312 180.605469 356.445312 178.652344 356.445312 176.699219 355.46875 176.699219 358.398438 177.675781 359.375 177.675781 360.351562 179.628906 360.351562 180.605469 362.304688 179.628906 362.304688 179.628906 364.257812 178.652344 365.234375 178.652344 366.210938 180.605469 365.234375 181.582031 364.257812 181.582031 366.210938 181.582031 366.210938 181.582031 367.1875 182.558594 367.1875 182.558594 366.210938 184.511719 366.210938 184.511719 366.210938 185.488281 367.1875 185.488281 370.117188 186.464844 371.09375 186.464844 372.070312 185.488281 373.046875 185.488281 374.023438 183.535156 374.023438 182.558594 375 181.582031 374.023438 178.652344 373.046875 176.699219 373.046875 175.722656 373.046875 174.746094 373.046875 171.816406 373.046875 170.839844 373.046875 169.863281 372.070312 167.910156 372.070312 167.910156 373.046875 166.933594 372.070312 165.957031 372.070312 164.003906 371.09375 163.027344 370.117188 162.050781 369.140625 162.050781 368.164062 161.074219 367.1875 161.074219 366.210938 160.097656 365.234375 160.097656 364.257812 156.191406 363.28125 155.214844 364.257812 154.238281 363.28125 153.261719 363.28125 151.308594 362.304688 151.308594 361.328125 150.332031 360.351562 149.355469 359.375 149.355469 357.421875 148.378906 356.445312 149.355469 356.445312 149.355469 355.46875 149.355469 355.46875 149.355469 353.515625 148.378906 350.585938 149.355469 349.609375 148.378906 348.632812 147.402344 347.65625 146.425781 347.65625 147.402344 346.679688 145.449219 347.65625 145.449219 346.679688 144.472656 344.726562 145.449219 342.773438 145.449219 340.820312 143.496094 336.914062 143.496094 335.9375 143.496094 334.960938 143.496094 333.984375 143.496094 333.007812 143.496094 332.03125 143.496094 329.101562 143.496094 327.148438 144.472656 324.21875 143.496094 323.242188 144.472656 322.265625 143.496094 321.289062 143.496094 320.3125 145.449219 318.359375 144.472656 317.382812 145.449219 316.40625 145.449219 314.453125 147.402344 312.5 148.378906 311.523438 148.378906 309.570312 147.402344 306.640625 149.355469 304.6875 149.355469 301.757812 149.355469 298.828125 148.378906 294.921875 149.355469 294.921875 150.332031 293.945312 151.308594 294.921875 151.308594 293.945312 155.214844 292.96875 156.191406 293.945312 156.191406 293.945312 157.167969 293.945312 156.191406 294.921875 157.167969 294.921875 157.167969 297.851562 158.144531 298.828125 160.097656 299.804688 161.074219 296.875 162.050781 296.875 161.074219 294.921875 162.050781 292.96875 162.050781 292.96875 163.027344 292.96875 164.003906 292.96875 164.980469 291.015625 167.910156 291.015625 167.910156 292.96875 169.863281 292.96875 169.863281 293.945312 169.863281 295.898438 171.816406 295.898438 171.816406 297.851562 173.769531 297.851562 173.769531 300.78125 175.722656 300.78125 174.746094 296.875 174.746094 295.898438 178.652344 295.898438 179.628906 293.945312 180.605469 293.945312 180.605469 291.992188 179.628906 291.992188 179.628906 291.015625 178.652344 291.015625 178.652344 290.039062 177.675781 290.039062 177.675781 289.0625 178.652344 289.0625 178.652344 287.109375 177.675781 287.109375 178.652344 286.132812 178.652344 286.132812 179.628906 285.15625 180.605469 286.132812 182.558594 286.132812 183.535156 287.109375 183.535156 288.085938 184.511719 287.109375 186.464844 289.0625 186.464844 289.0625 187.441406 289.0625 188.417969 290.039062 190.371094 290.039062 190.371094 289.0625 191.347656 288.085938 192.324219 288.085938 192.324219 289.0625 195.253906 287.109375 196.230469 285.15625 198.183594 285.15625 198.183594 286.132812 199.160156 287.109375 200.136719 287.109375 199.160156 287.109375 200.136719 289.0625 200.136719 289.0625 202.089844 292.96875 203.066406 293.945312 204.042969 292.96875 206.972656 293.945312 208.925781 293.945312 208.925781 294.921875 209.902344 294.921875 209.902344 297.851562 206.972656 298.828125 204.042969 298.828125 202.089844 300.78125 201.113281 301.757812 200.136719 302.734375 198.183594 305.664062 199.160156 305.664062 200.136719 306.640625 199.160156 306.640625 199.160156 308.59375 200.136719 308.59375 200.136719 310.546875 200.136719 311.523438 199.160156 310.546875 198.183594 311.523438 199.160156 311.523438 199.160156 312.5 200.136719 312.5 202.089844 311.523438 206.972656 311.523438 206.972656 313.476562 207.949219 312.5 207.949219 312.5 209.902344 312.5 209.902344 312.5 211.855469 312.5 211.855469 310.546875 214.785156 309.570312 214.785156 309.570312 214.785156 308.59375 215.761719 308.59375 216.738281 309.570312 217.714844 309.570312 218.691406 311.523438 219.667969 312.5 220.644531 313.476562 220.644531 314.453125 219.667969 314.453125 219.667969 315.429688 219.667969 316.40625 220.644531 316.40625 220.644531 317.382812 221.621094 318.359375 221.621094 317.382812 223.574219 318.359375 223.574219 319.335938 223.574219 319.335938 223.574219 321.289062 224.550781 320.3125 225.527344 321.289062 226.503906 320.3125 228.457031 320.3125 228.457031 320.3125 230.410156 321.289062 230.410156 322.265625 229.433594 324.21875 230.410156 326.171875 230.410156 328.125 231.386719 329.101562 232.363281 329.101562 233.339844 329.101562 233.339844 331.054688"></polygon>
                            <polygon id="路径" stroke="#F6F6F6" fill="#F6F6F6" fill-rule="nonzero" points="192.324219 185.546875 192.324219 185.546875 190.371094 185.546875 188.417969 184.570312 188.417969 182.617188 187.441406 181.640625 186.464844 181.640625 186.464844 180.664062 184.511719 179.6875 183.535156 180.664062 182.558594 180.664062 182.558594 178.710938 182.558594 176.757812 181.582031 176.757812 183.535156 173.828125 182.558594 171.875 181.582031 171.875 180.605469 169.921875 179.628906 170.898438 178.652344 170.898438 177.675781 169.921875 176.699219 169.921875 174.746094 169.921875 174.746094 168.945312 173.769531 168.945312 172.792969 168.945312 172.792969 168.945312 170.839844 167.96875 168.886719 168.945312 169.863281 168.945312 167.910156 169.921875 167.910156 168.945312 167.910156 167.96875 166.933594 166.015625 167.910156 166.015625 167.910156 164.0625 166.933594 164.0625 165.957031 164.0625 164.003906 164.0625 164.980469 162.109375 165.957031 162.109375 165.957031 161.132812 164.003906 160.15625 162.050781 159.179688 160.097656 157.226562 159.121094 157.226562 158.144531 157.226562 156.191406 157.226562 155.214844 158.203125 154.238281 156.25 154.238281 156.25 153.261719 155.273438 154.238281 154.296875 153.261719 153.320312 154.238281 152.34375 153.261719 151.367188 153.261719 150.390625 154.238281 150.390625 155.214844 149.414062 154.238281 147.460938 154.238281 146.484375 153.261719 144.53125 154.238281 142.578125 154.238281 142.578125 156.191406 141.601562 156.191406 139.648438 156.191406 138.671875 156.191406 138.671875 154.238281 136.71875 154.238281 134.765625 156.191406 134.765625 158.144531 131.835938 159.121094 130.859375 161.074219 130.859375 162.050781 131.835938 163.027344 130.859375 164.003906 130.859375 164.980469 130.859375 167.910156 130.859375 168.886719 131.835938 168.886719 132.8125 168.886719 134.765625 170.839844 134.765625 170.839844 136.71875 171.816406 137.695312 173.769531 134.765625 175.722656 134.765625 175.722656 134.765625 177.675781 135.742188 179.628906 135.742188 180.605469 134.765625 182.558594 134.765625 183.535156 133.789062 185.488281 133.789062 187.441406 133.789062 188.417969 134.765625 189.394531 134.765625 191.347656 134.765625 192.324219 134.765625 193.300781 133.789062 194.277344 132.8125 194.277344 131.835938 193.300781 130.859375 192.324219 128.90625 190.371094 127.929688 190.371094 126.953125 189.394531 126.953125 188.417969 126.953125 186.464844 127.929688 185.488281 125.976562 184.511719 125.976562 183.535156 125 184.511719 124.023438 185.488281 122.070312 187.441406 121.09375 187.441406 118.164062 190.371094 118.164062 190.371094 116.210937 191.347656 116.210937 192.324219 114.257813 192.324219 113.28125 193.300781 112.304688 194.277344 111.328125 196.230469 109.375 196.230469 108.398438 197.207031 107.421875 196.230469 105.46875 196.230469 103.515625 197.207031 102.539062 197.207031 101.5625 198.183594 101.5625 199.160156 101.5625 201.113281 100.585938 203.066406 101.5625 203.066406 99.609375 203.066406 98.6328125 201.113281 98.6328125 200.136719 97.65625 199.160156 97.65625 199.160156 96.6796875 198.183594 95.703125 198.183594 94.7265625 197.207031 93.75 195.253906 94.7265625 195.253906 93.75 193.300781 93.75 193.300781 92.7734375 192.324219 91.796875 193.300781 90.8203125 191.347656 90.8203125 190.371094 90.8203125 189.394531 89.84375 187.441406 89.84375 187.441406 88.8671875 188.417969 85.9375 189.394531 84.9609375 190.371094 84.9609375 190.371094 83.984375 190.371094 83.0078125 191.347656 82.03125 190.371094 81.0546875 190.371094 80.078125 191.347656 79.1015625 191.347656 78.125 191.347656 76.171875 192.324219 74.21875 191.347656 74.21875 190.371094 73.2421875 190.371094 71.2890625 189.394531 70.3125 189.394531 70.3125 188.417969 69.3359375 187.441406 69.3359375 186.464844 67.3828125 184.511719 67.3828125 183.535156 67.3828125 183.535156 67.3828125 182.558594 65.4296875 182.558594 63.4765625 182.558594 61.5234375 181.582031 61.5234375 180.605469 60.546875 178.652344 59.5703125 178.652344 57.6171875 178.652344 56.640625 175.722656 55.6640625 174.746094 54.6875 172.792969 53.7109375 172.792969 52.734375 171.816406 49.8046875 170.839844 48.828125 169.863281 46.875 168.886719 46.875 166.933594 44.921875 165.957031 43.9453125 165.957031 42.96875 164.980469 41.9921875 164.003906 41.015625 162.050781 39.0625 161.074219 38.0859375 160.097656 37.109375 160.097656 36.1328125 160.097656 33.203125 161.074219 32.2265625 161.074219 31.25 163.027344 30.2734375 164.003906 30.2734375 164.980469 28.3203125 165.957031 28.3203125 167.910156 30.2734375 167.910156 30.2734375 168.886719 31.25 168.886719 33.203125 169.863281 35.15625 170.839844 35.15625 171.816406 37.109375 172.792969 37.109375 173.769531 38.0859375 174.746094 37.109375 176.699219 37.109375 177.675781 38.0859375 180.605469 38.0859375 180.605469 38.0859375 181.582031 38.0859375 182.558594 39.0625 184.511719 39.0625 185.488281 37.109375 184.511719 33.203125 183.535156 32.2265625 183.535156 30.2734375 182.558594 30.2734375 182.558594 29.296875 181.582031 27.34375 181.582031 26.3671875 179.628906 25.390625 180.605469 22.4609375 180.605469 22.4609375 181.582031 19.53125 182.558594 18.5546875 184.511719 19.53125 185.488281 19.53125 186.464844 18.5546875 187.441406 19.53125 188.417969 19.53125 189.394531 20.5078125 192.324219 20.5078125 192.324219 18.5546875 193.300781 18.5546875 195.253906 17.578125 195.253906 17.578125 196.230469 16.6015625 197.207031 17.578125 199.160156 16.6015625 200.136719 15.625 201.113281 16.6015625 202.089844 17.578125 205.019531 19.53125 205.996094 20.5078125 208.925781 18.5546875 209.902344 14.6484375 208.925781 13.671875 209.902344 10.7421875 209.902344 10.7421875 210.878906 9.765625 209.902344 7.8125 209.902344 5.859375 208.925781 5.859375 208.925781 4.8828125 209.902344 2.9296875 208.925781 1.953125 210.878906 1.953125 211.855469 0 212.832031 0 213.808594 0.9765625 214.785156 0 215.761719 0.9765625 216.738281 1.953125 217.714844 2.9296875 219.667969 2.9296875 219.667969 3.90625 220.644531 3.90625 221.621094 3.90625 222.597656 4.8828125 222.597656 4.8828125 223.574219 5.859375 223.574219 7.8125 223.574219 8.7890625 222.597656 10.7421875 222.597656 10.7421875 222.597656 12.6953125 221.621094 13.671875 221.621094 17.578125 221.621094 18.5546875 220.644531 18.5546875 220.644531 19.53125 220.644531 20.5078125 221.621094 22.4609375 222.597656 25.390625 223.574219 27.34375 224.550781 27.34375 224.550781 28.3203125 225.527344 29.296875 226.503906 29.296875 226.503906 30.2734375 228.457031 31.25 227.480469 32.2265625 226.503906 35.15625 227.480469 35.15625 228.457031 36.1328125 229.433594 37.109375 230.410156 38.0859375 231.386719 38.0859375 233.339844 39.0625 235.292969 39.0625 235.292969 41.015625 235.292969 41.9921875 237.246094 41.015625 237.246094 41.9921875 238.222656 41.9921875 242.128906 45.8984375 242.128906 47.8515625 243.105469 47.8515625 243.105469 50.78125 243.105469 50.78125 245.058594 48.828125 246.035156 48.828125 247.011719 49.8046875 247.011719 50.78125 247.988281 49.8046875 248.964844 50.78125 248.964844 50.78125 250.917969 50.78125 250.917969 51.7578125 251.894531 51.7578125 252.871094 52.734375 252.871094 53.7109375 254.824219 54.6875 255.800781 54.6875 255.800781 55.6640625 256.777344 56.640625 256.777344 58.59375 257.753906 59.5703125 256.777344 60.546875 255.800781 60.546875 254.824219 61.5234375 253.847656 61.5234375 254.824219 63.4765625 252.871094 63.4765625 252.871094 64.453125 251.894531 64.453125 251.894531 65.4296875 248.964844 67.3828125 249.941406 69.3359375 247.988281 71.2890625 247.011719 72.265625 246.035156 71.2890625 245.058594 72.265625 243.105469 72.265625 242.128906 72.265625 240.175781 70.3125 239.199219 71.2890625 240.175781 74.21875 240.175781 75.1953125 241.152344 76.171875 241.152344 80.078125 240.175781 81.0546875 240.175781 83.0078125 240.175781 83.0078125 237.246094 83.0078125 236.269531 82.03125 235.292969 82.03125 235.292969 83.0078125 234.316406 83.0078125 233.339844 83.984375 233.339844 84.9609375 231.386719 85.9375 229.433594 85.9375 229.433594 86.9140625 228.457031 87.890625 227.480469 90.8203125 228.457031 91.796875 227.480469 92.7734375 227.480469 94.7265625 227.480469 95.703125 227.480469 97.65625 225.527344 99.609375 225.527344 100.585938 226.503906 100.585938 226.503906 102.539062 225.527344 101.5625 225.527344 102.539062 226.503906 103.515625 226.503906 104.492188 227.480469 105.46875 226.503906 106.445312 227.480469 106.445312 227.480469 108.398438 227.480469 108.398438 227.480469 109.375 228.457031 111.328125 228.457031 113.28125 227.480469 114.257813 227.480469 115.234375 225.527344 115.234375 223.574219 115.234375 222.597656 116.210937 222.597656 117.1875 220.644531 117.1875 220.644531 117.1875 219.667969 118.164062 221.621094 117.1875 222.597656 119.140625 224.550781 118.164062 226.503906 119.140625 226.503906 121.09375 227.480469 122.070312 228.457031 123.046875 229.433594 124.023438 228.457031 125 228.457031 125.976562 227.480469 126.953125 226.503906 127.929688 225.527344 130.859375 225.527344 131.835938 224.550781 131.835938 225.527344 133.789062 227.480469 134.765625 225.527344 134.765625 225.527344 135.742188 225.527344 137.695312 226.503906 137.695312 226.503906 138.671875 228.457031 139.648438 229.433594 139.648438 229.433594 139.648438 230.410156 139.648438 229.433594 141.601562 231.386719 143.554688 230.410156 143.554688 229.433594 143.554688 230.410156 144.53125 230.410156 147.460938 231.386719 149.414062 232.363281 148.4375 232.363281 148.4375 233.339844 149.414062 231.386719 151.367188 230.410156 151.367188 230.410156 152.34375 229.433594 152.34375 228.457031 152.34375 229.433594 154.296875 228.457031 156.25 229.433594 157.226562 227.480469 158.203125 227.480469 159.179688 229.433594 160.15625 230.410156 160.15625 229.433594 162.109375 231.386719 162.109375 231.386719 163.085938 231.386719 163.085938 231.386719 166.015625 231.386719 166.992188 232.363281 166.992188 232.363281 167.96875 234.316406 166.992188 234.316406 168.945312 236.269531 167.96875 237.246094 167.96875 237.246094 169.921875 238.222656 169.921875 239.199219 171.875 240.175781 172.851562 238.222656 173.828125 237.246094 175.78125 236.269531 175.78125 234.316406 179.6875 233.339844 179.6875 229.433594 186.523438 227.480469 186.523438 227.480469 187.5 226.503906 188.476562 226.503906 189.453125 225.527344 190.429688 224.550781 191.40625 223.574219 191.40625 222.597656 190.429688 221.621094 191.40625 221.621094 189.453125 222.597656 188.476562 221.621094 187.5 221.621094 185.546875 217.714844 185.546875 216.738281 186.523438 216.738281 185.546875 215.761719 186.523438 215.761719 185.546875 213.808594 185.546875 213.808594 187.5 212.832031 188.476562 211.855469 187.5 209.902344 187.5 209.902344 186.523438 209.902344 186.523438 208.925781 184.570312 207.949219 184.570312 206.972656 183.59375 206.972656 184.570312 205.996094 183.59375 204.042969 183.59375 204.042969 182.617188 203.066406 182.617188 203.066406 182.617188 199.160156 182.617188 198.183594 182.617188 199.160156 184.570312 198.183594 185.546875 196.230469 185.546875 196.230469 186.523438 194.277344 186.523438 194.277344 186.523438 193.300781 186.523438"></polygon>
                            <polygon id="路径" stroke="#F6F6F6" fill="#F6F6F6" fill-rule="nonzero" points="274.355469 233.398438 274.355469 230.46875 275.332031 230.46875 276.308594 229.492188 277.285156 229.492188 277.285156 228.515625 278.261719 228.515625 278.261719 226.5625 277.285156 225.585938 277.285156 224.609375 278.261719 224.609375 277.285156 223.632812 276.308594 222.65625 276.308594 221.679688 275.332031 221.679688 276.308594 220.703125 276.308594 218.75 276.308594 218.75 275.332031 217.773438 275.332031 215.820312 274.355469 215.820312 275.332031 214.84375 275.332031 212.890625 276.308594 211.914062 276.308594 210.9375 277.285156 209.960938 275.332031 208.984375 275.332031 207.03125 273.378906 206.054688 274.355469 204.101562 272.402344 204.101562 272.402344 204.101562 271.425781 204.101562 271.425781 202.148438 271.425781 202.148438 271.425781 200.195312 269.472656 200.195312 268.496094 197.265625 267.519531 196.289062 268.496094 196.289062 269.472656 196.289062 269.472656 193.359375 268.496094 192.382812 269.472656 191.40625 270.449219 191.40625 270.449219 190.429688 272.402344 190.429688 273.378906 191.40625 275.332031 188.476562 276.308594 187.5 274.355469 186.523438 273.378906 186.523438 272.402344 185.546875 271.425781 184.570312 273.378906 182.617188 273.378906 181.640625 275.332031 180.664062 275.332031 179.6875 277.285156 178.710938 278.261719 178.710938 278.261719 177.734375 280.214844 177.734375 281.191406 176.757812 280.214844 175.78125 282.167969 173.828125 281.191406 170.898438 282.167969 170.898438 282.167969 168.945312 283.144531 166.992188 284.121094 166.015625 286.074219 166.992188 288.027344 166.015625 289.003906 166.992188 290.957031 166.015625 291.933594 165.039062 292.910156 165.039062 292.910156 165.039062 294.863281 163.085938 296.816406 162.109375 297.792969 161.132812 298.769531 162.109375 299.746094 162.109375 300.722656 163.085938 301.699219 162.109375 302.675781 161.132812 304.628906 160.15625 305.605469 159.179688 307.558594 158.203125 307.558594 157.226562 309.511719 158.203125 309.511719 157.226562 311.464844 157.226562 312.441406 157.226562 315.371094 157.226562 316.347656 158.203125 317.324219 157.226562 318.300781 156.25 319.277344 157.226562 320.253906 159.179688 322.207031 158.203125 322.207031 158.203125 324.160156 160.15625 324.160156 161.132812 325.136719 161.132812 325.136719 163.085938 325.136719 165.039062 326.113281 166.015625 326.113281 166.015625 327.089844 166.015625 329.042969 166.992188 328.066406 168.945312 328.066406 169.921875 329.042969 170.898438 329.042969 172.851562 330.996094 173.828125 331.972656 174.804688 331.972656 176.757812 331.972656 177.734375 332.949219 179.6875 333.925781 179.6875 335.878906 178.710938 335.878906 177.734375 337.832031 177.734375 338.808594 176.757812 339.785156 177.734375 339.785156 182.617188 339.785156 182.617188 340.761719 184.570312 340.761719 186.523438 340.761719 187.5 341.738281 189.453125 341.738281 189.453125 342.714844 190.429688 343.691406 190.429688 344.667969 189.453125 346.621094 189.453125 348.574219 191.40625 349.550781 190.429688 350.527344 192.382812 347.597656 193.359375 347.597656 195.3125 348.574219 195.3125 350.527344 196.289062 347.597656 197.265625 348.574219 198.242188 348.574219 198.242188 348.574219 200.195312 349.550781 200.195312 351.503906 199.21875 352.480469 200.195312 352.480469 201.171875 351.503906 201.171875 350.527344 202.148438 350.527344 203.125 348.574219 202.148438 348.574219 204.101562 347.597656 203.125 346.621094 203.125 345.644531 203.125 345.644531 203.125 344.667969 203.125 343.691406 203.125 342.714844 204.101562 343.691406 206.054688 344.667969 207.03125 342.714844 208.984375 343.691406 208.984375 342.714844 209.960938 343.691406 209.960938 343.691406 210.9375 342.714844 210.9375 342.714844 211.914062 339.785156 212.890625 339.785156 211.914062 337.832031 210.9375 336.855469 211.914062 336.855469 210.9375 334.902344 211.914062 334.902344 214.84375 333.925781 215.820312 333.925781 216.796875 331.972656 215.820312 330.019531 217.773438 330.019531 218.75 330.019531 219.726562 329.042969 218.75 328.066406 217.773438 327.089844 217.773438 326.113281 217.773438 325.136719 216.796875 324.160156 217.773438 323.183594 217.773438 323.183594 218.75 321.230469 219.726562 321.230469 220.703125 321.230469 221.679688 321.230469 222.65625 318.300781 221.679688 318.300781 222.65625 319.277344 224.609375 317.324219 225.585938 317.324219 226.5625 318.300781 226.5625 317.324219 227.539062 316.347656 228.515625 316.347656 227.539062 315.371094 227.539062 314.394531 224.609375 314.394531 224.609375 313.417969 225.585938 314.394531 226.5625 313.417969 227.539062 312.441406 227.539062 311.464844 227.539062 309.511719 226.5625 309.511719 226.5625 308.535156 228.515625 305.605469 229.492188 303.652344 229.492188 302.675781 227.539062 299.746094 227.539062 299.746094 226.5625 295.839844 227.539062 295.839844 228.515625 295.839844 229.492188 295.839844 228.515625 293.886719 228.515625 293.886719 229.492188 292.910156 230.46875 291.933594 230.46875 289.980469 230.46875 290.957031 232.421875 289.980469 232.421875 288.027344 233.398438 287.050781 235.351562 286.074219 235.351562 286.074219 237.304688 285.097656 237.304688 286.074219 237.304688 285.097656 237.304688 284.121094 237.304688 283.144531 237.304688 281.191406 238.28125 281.191406 237.304688 280.214844 236.328125 278.261719 236.328125 276.308594 236.328125 275.332031 233.398438 275.332031 233.398438"></polygon>
                            <polygon id="路径" stroke="#F6F6F6" fill="#F6F6F6" fill-rule="nonzero" points="268.496094 192.382812 268.496094 191.40625 267.519531 193.359375 266.542969 194.335938 265.566406 193.359375 265.566406 194.335938 263.613281 193.359375 263.613281 192.382812 262.636719 192.382812 261.660156 191.40625 262.636719 190.429688 261.660156 189.453125 261.660156 188.476562 259.707031 186.523438 259.707031 186.523438 258.730469 185.546875 258.730469 184.570312 257.753906 183.59375 258.730469 181.640625 257.753906 179.6875 257.753906 177.734375 254.824219 177.734375 254.824219 177.734375 253.847656 174.804688 252.871094 173.828125 250.917969 173.828125 249.941406 174.804688 249.941406 175.78125 249.941406 176.757812 248.964844 177.734375 248.964844 179.6875 247.011719 179.6875 247.011719 178.710938 246.035156 179.6875 245.058594 178.710938 244.082031 178.710938 242.128906 178.710938 242.128906 180.664062 242.128906 180.664062 242.128906 182.617188 240.175781 183.59375 240.175781 183.59375 239.199219 182.617188 238.222656 183.59375 236.269531 181.640625 234.316406 180.664062 233.339844 181.640625 234.316406 180.664062 234.316406 179.6875 236.269531 175.78125 237.246094 175.78125 238.222656 173.828125 240.175781 172.851562 239.199219 171.875 238.222656 169.921875 237.246094 169.921875 237.246094 167.96875 236.269531 167.96875 234.316406 168.945312 234.316406 166.992188 232.363281 167.96875 232.363281 166.992188 231.386719 166.992188 231.386719 166.015625 231.386719 163.085938 231.386719 163.085938 231.386719 162.109375 229.433594 162.109375 230.410156 160.15625 229.433594 160.15625 227.480469 159.179688 227.480469 158.203125 229.433594 157.226562 228.457031 156.25 229.433594 154.296875 228.457031 152.34375 229.433594 152.34375 230.410156 152.34375 230.410156 151.367188 231.386719 151.367188 233.339844 149.414062 232.363281 148.4375 232.363281 148.4375 231.386719 149.414062 230.410156 147.460938 230.410156 144.53125 229.433594 143.554688 230.410156 143.554688 231.386719 143.554688 229.433594 141.601562 230.410156 139.648438 229.433594 139.648438 229.433594 139.648438 228.457031 139.648438 226.503906 138.671875 226.503906 137.695312 225.527344 137.695312 225.527344 135.742188 225.527344 134.765625 227.480469 134.765625 225.527344 133.789062 224.550781 131.835938 225.527344 131.835938 225.527344 130.859375 226.503906 127.929688 227.480469 126.953125 228.457031 125.976562 228.457031 125 229.433594 124.023438 228.457031 123.046875 227.480469 122.070312 226.503906 121.09375 226.503906 119.140625 224.550781 118.164062 222.597656 119.140625 221.621094 117.1875 219.667969 118.164062 220.644531 117.1875 220.644531 117.1875 222.597656 117.1875 222.597656 116.210938 223.574219 115.234375 225.527344 115.234375 227.480469 115.234375 227.480469 114.257812 228.457031 113.28125 228.457031 111.328125 227.480469 109.375 227.480469 108.398438 227.480469 108.398438 227.480469 106.445312 226.503906 106.445312 227.480469 105.46875 226.503906 104.492188 226.503906 103.515625 225.527344 102.539062 225.527344 101.5625 226.503906 102.539062 226.503906 100.585938 225.527344 100.585938 225.527344 99.609375 227.480469 97.65625 227.480469 95.703125 227.480469 94.7265625 227.480469 92.7734375 228.457031 91.796875 227.480469 90.8203125 228.457031 87.890625 229.433594 86.9140625 229.433594 85.9375 231.386719 85.9375 233.339844 84.9609375 233.339844 83.984375 234.316406 83.0078125 235.292969 83.0078125 235.292969 82.03125 236.269531 82.03125 237.246094 83.0078125 240.175781 83.0078125 240.175781 83.0078125 240.175781 81.0546875 241.152344 80.078125 241.152344 76.171875 240.175781 75.1953125 240.175781 74.21875 239.199219 71.2890625 240.175781 70.3125 242.128906 72.265625 243.105469 72.265625 245.058594 72.265625 246.035156 71.2890625 247.011719 72.265625 247.988281 71.2890625 249.941406 69.3359375 248.964844 67.3828125 251.894531 65.4296875 251.894531 64.453125 252.871094 64.453125 252.871094 63.4765625 254.824219 63.4765625 253.847656 61.5234375 254.824219 61.5234375 255.800781 60.546875 256.777344 60.546875 257.753906 59.5703125 258.730469 60.546875 259.707031 60.546875 259.707031 62.5 259.707031 64.453125 259.707031 65.4296875 260.683594 65.4296875 264.589844 65.4296875 264.589844 67.3828125 265.566406 69.3359375 264.589844 71.2890625 265.566406 72.265625 267.519531 73.2421875 268.496094 76.171875 268.496094 77.1484375 271.425781 78.125 272.402344 79.1015625 272.402344 81.0546875 273.378906 81.0546875 274.355469 81.0546875 274.355469 82.03125 276.308594 82.03125 276.308594 82.03125 279.238281 83.0078125 279.238281 83.984375 281.191406 83.984375 281.191406 83.984375 283.144531 83.984375 284.121094 84.9609375 285.097656 83.984375 285.097656 83.0078125 286.074219 82.03125 288.027344 83.0078125 289.003906 82.03125 291.933594 82.03125 292.910156 82.03125 293.886719 82.03125 294.863281 81.0546875 297.792969 80.078125 298.769531 82.03125 300.722656 82.03125 301.699219 83.0078125 303.652344 83.0078125 304.628906 82.03125 306.582031 83.0078125 307.558594 82.03125 308.535156 82.03125 309.511719 83.984375 310.488281 83.984375 310.488281 83.0078125 312.441406 83.0078125 313.417969 83.0078125 314.394531 83.0078125 315.371094 83.0078125 315.371094 83.984375 316.347656 83.984375 317.324219 83.984375 319.277344 85.9375 320.253906 86.9140625 321.230469 86.9140625 324.160156 86.9140625 324.160156 85.9375 326.113281 86.9140625 327.089844 88.8671875 328.066406 88.8671875 328.066406 89.84375 330.019531 90.8203125 334.902344 91.796875 336.855469 90.8203125 337.832031 89.84375 337.832031 88.8671875 338.808594 87.890625 341.738281 87.890625 343.691406 85.9375 345.644531 85.9375 346.621094 84.9609375 348.574219 84.9609375 350.527344 83.984375 351.503906 84.9609375 352.480469 83.984375 353.457031 84.9609375 354.433594 85.9375 355.410156 84.9609375 356.386719 86.9140625 358.339844 85.9375 360.292969 86.9140625 361.269531 86.9140625 363.222656 85.9375 364.199219 85.9375 365.175781 86.9140625 367.128906 87.890625 369.082031 89.84375 369.082031 90.8203125 367.128906 91.796875 368.105469 93.75 367.128906 93.75 367.128906 95.703125 365.175781 95.703125 364.199219 96.6796875 363.222656 95.703125 362.246094 93.75 362.246094 93.75 361.269531 92.7734375 360.292969 92.7734375 360.292969 91.796875 358.339844 92.7734375 359.316406 92.7734375 358.339844 93.75 358.339844 94.7265625 358.339844 97.65625 356.386719 97.65625 356.386719 98.6328125 355.410156 98.6328125 354.433594 96.6796875 354.433594 95.703125 353.457031 96.6796875 352.480469 97.65625 353.457031 99.609375 353.457031 100.585938 352.480469 100.585938 351.503906 103.515625 352.480469 104.492188 353.457031 106.445312 353.457031 106.445312 353.457031 108.398438 354.433594 109.375 354.433594 110.351562 353.457031 111.328125 352.480469 111.328125 351.503906 111.328125 350.527344 110.351562 349.550781 111.328125 348.574219 112.304688 347.597656 113.28125 345.644531 113.28125 345.644531 112.304688 344.667969 111.328125 343.691406 110.351562 341.738281 109.375 340.761719 108.398438 339.785156 109.375 337.832031 110.351562 336.855469 110.351562 336.855469 110.351562 333.925781 110.351562 331.972656 112.304688 329.042969 113.28125 328.066406 114.257812 327.089844 114.257812 326.113281 114.257812 325.136719 116.210938 323.183594 117.1875 323.183594 118.164062 323.183594 119.140625 323.183594 120.117188 324.160156 122.070312 325.136719 124.023438 326.113281 124.023438 326.113281 125 324.160156 125 323.183594 125.976562 321.230469 124.023438 320.253906 125.976562 318.300781 125 317.324219 125 316.347656 126.953125 317.324219 126.953125 316.347656 127.929688 316.347656 128.90625 316.347656 129.882812 317.324219 129.882812 319.277344 132.8125 319.277344 133.789062 320.253906 134.765625 321.230469 135.742188 320.253906 136.71875 321.230469 138.671875 322.207031 138.671875 324.160156 139.648438 324.160156 140.625 326.113281 141.601562 325.136719 143.554688 323.183594 145.507812 323.183594 146.484375 321.230469 147.460938 321.230469 149.414062 321.230469 151.367188 322.207031 152.34375 322.207031 152.34375 321.230469 153.320312 321.230469 154.296875 320.253906 154.296875 320.253906 156.25 319.277344 157.226562 318.300781 156.25 317.324219 157.226562 316.347656 158.203125 315.371094 157.226562 312.441406 157.226562 311.464844 157.226562 309.511719 157.226562 309.511719 158.203125 307.558594 157.226562 307.558594 158.203125 305.605469 159.179688 304.628906 160.15625 302.675781 161.132812 301.699219 162.109375 300.722656 163.085938 299.746094 162.109375 298.769531 162.109375 297.792969 161.132812 296.816406 162.109375 294.863281 163.085938 292.910156 165.039062 292.910156 165.039062 291.933594 165.039062 290.957031 166.015625 289.003906 166.992188 288.027344 166.015625 286.074219 166.992188 284.121094 166.015625 283.144531 166.992188 282.167969 168.945312 282.167969 170.898438 281.191406 170.898438 282.167969 173.828125 280.214844 175.78125 281.191406 176.757812 280.214844 177.734375 278.261719 177.734375 278.261719 178.710938 277.285156 178.710938 275.332031 179.6875 275.332031 180.664062 273.378906 181.640625 273.378906 182.617188 271.425781 184.570312 272.402344 185.546875 273.378906 186.523438 274.355469 186.523438 276.308594 187.5 275.332031 188.476562 273.378906 191.40625 272.402344 190.429688 270.449219 190.429688 270.449219 191.40625 269.472656 191.40625"></polygon>
                            <polygon id="路径" stroke="#F6F6F6" fill="#F6F6F6" fill-rule="nonzero" points="96.6210938 186.523438 96.6210938 185.546875 95.6445313 184.570312 94.6679688 183.59375 94.6679688 182.617188 93.6914063 180.664062 93.6914063 180.664062 93.6914063 179.6875 91.7382813 177.734375 92.7148438 175.78125 91.7382813 175.78125 91.7382813 174.804688 89.7851563 173.828125 89.7851563 173.828125 88.8085938 172.851562 89.7851563 171.875 88.8085938 170.898438 88.8085938 169.921875 88.8085938 168.945312 88.8085938 167.96875 87.8320313 166.015625 86.8554688 165.039062 83.9257813 166.015625 82.9492188 165.039062 81.9726563 165.039062 81.9726563 165.039062 80.9960938 165.039062 80.9960938 164.0625 80.0195313 165.039062 79.0429688 165.039062 78.0664063 164.0625 78.0664063 161.132812 77.0898438 161.132812 75.1367188 161.132812 74.1601563 160.15625 74.1601563 160.15625 73.1835938 159.179688 66.3476563 149.414062 66.3476563 148.4375 65.3710938 148.4375 64.3945313 146.484375 61.4648438 145.507812 62.4414063 144.53125 62.4414063 143.554688 62.4414063 143.554688 62.4414063 142.578125 63.4179688 140.625 62.4414063 141.601562 61.4648438 140.625 61.4648438 138.671875 62.4414063 137.695312 62.4414063 136.71875 63.4179688 133.789062 62.4414063 133.789062 61.4648438 132.8125 56.5820313 132.8125 56.5820313 133.789062 55.6054688 131.835938 56.5820313 128.90625 56.5820313 127.929688 57.5585938 125.976562 58.5351563 125 58.5351563 124.023438 58.5351563 123.046875 59.5117188 123.046875 60.4882813 123.046875 61.4648438 121.09375 62.4414063 121.09375 62.4414063 120.117188 64.3945313 119.140625 65.3710938 118.164062 66.3476563 119.140625 67.3242188 119.140625 69.2773438 119.140625 70.2539063 118.164062 70.2539063 117.1875 70.2539063 116.210938 71.2304688 112.304688 75.1367188 110.351562 76.1132813 111.328125 78.0664063 110.351562 79.0429688 110.351562 81.9726563 110.351562 81.9726563 109.375 82.9492188 107.421875 83.9257813 107.421875 85.8789063 104.492188 87.8320313 105.46875 88.8085938 105.46875 90.7617188 105.46875 91.7382813 106.445312 92.7148438 106.445312 93.6914063 106.445312 96.6210938 107.421875 95.6445313 108.398438 96.6210938 108.398438 97.5976563 111.328125 98.5742188 113.28125 101.503906 113.28125 101.503906 112.304688 102.480469 112.304688 106.386719 107.421875 107.363281 107.421875 107.363281 109.375 107.363281 108.398438 110.292969 108.398438 111.269531 107.421875 112.246094 107.421875 113.222656 106.445312 114.199219 106.445312 115.175781 105.46875 115.175781 103.515625 117.128906 102.539062 117.128906 102.539062 119.082031 101.5625 120.058594 102.539062 122.988281 101.5625 122.988281 101.5625 122.988281 100.585938 122.011719 98.6328125 122.011719 97.65625 122.011719 96.6796875 123.964844 95.703125 125.917969 92.7734375 126.894531 92.7734375 128.847656 93.75 130.800781 93.75 131.777344 91.796875 131.777344 89.84375 131.777344 89.84375 132.753906 87.890625 131.777344 85.9375 132.753906 84.9609375 132.753906 83.0078125 133.730469 82.03125 134.707031 82.03125 135.683594 79.1015625 136.660156 79.1015625 137.636719 77.1484375 137.636719 76.171875 138.613281 75.1953125 139.589844 76.171875 140.566406 74.21875 140.566406 73.2421875 140.566406 72.265625 142.519531 71.2890625 142.519531 70.3125 142.519531 68.359375 143.496094 67.3828125 142.519531 65.4296875 144.472656 64.453125 145.449219 63.4765625 147.402344 64.453125 147.402344 65.4296875 149.355469 67.3828125 149.355469 68.359375 150.332031 69.3359375 149.355469 70.3125 150.332031 70.3125 151.308594 70.3125 153.261719 70.3125 154.238281 71.2890625 155.214844 72.265625 156.191406 72.265625 156.191406 72.265625 156.191406 70.3125 157.167969 68.359375 157.167969 68.359375 160.097656 67.3828125 160.097656 67.3828125 162.050781 67.3828125 164.003906 68.359375 164.980469 67.3828125 165.957031 68.359375 166.933594 67.3828125 168.886719 67.3828125 170.839844 66.40625 172.792969 66.40625 173.769531 65.4296875 174.746094 66.40625 174.746094 68.359375 176.699219 68.359375 177.675781 68.359375 178.652344 69.3359375 179.628906 68.359375 181.582031 69.3359375 183.535156 67.3828125 184.511719 67.3828125 186.464844 67.3828125 187.441406 69.3359375 188.417969 69.3359375 189.394531 70.3125 189.394531 70.3125 190.371094 71.2890625 190.371094 73.2421875 191.347656 74.21875 192.324219 74.21875 191.347656 76.171875 191.347656 78.125 191.347656 79.1015625 190.371094 80.078125 190.371094 81.0546875 191.347656 82.03125 190.371094 83.0078125 190.371094 83.984375 190.371094 84.9609375 189.394531 84.9609375 188.417969 85.9375 187.441406 88.8671875 187.441406 89.84375 189.394531 89.84375 190.371094 90.8203125 191.347656 90.8203125 193.300781 90.8203125 192.324219 91.796875 193.300781 92.7734375 193.300781 93.75 195.253906 93.75 195.253906 94.7265625 197.207031 93.75 198.183594 94.7265625 198.183594 95.703125 199.160156 96.6796875 199.160156 97.65625 200.136719 97.65625 201.113281 98.6328125 203.066406 98.6328125 203.066406 99.609375 203.066406 101.5625 201.113281 100.585938 199.160156 101.5625 198.183594 101.5625 197.207031 101.5625 197.207031 102.539062 196.230469 103.515625 196.230469 105.46875 197.207031 107.421875 196.230469 108.398438 196.230469 109.375 194.277344 111.328125 193.300781 112.304688 192.324219 113.28125 192.324219 114.257812 191.347656 116.210938 190.371094 116.210938 190.371094 118.164062 187.441406 118.164062 187.441406 121.09375 185.488281 122.070312 184.511719 124.023438 183.535156 125 184.511719 125.976562 185.488281 125.976562 186.464844 127.929688 188.417969 126.953125 189.394531 126.953125 190.371094 126.953125 190.371094 127.929688 192.324219 128.90625 193.300781 130.859375 194.277344 131.835938 194.277344 132.8125 193.300781 133.789062 192.324219 134.765625 191.347656 134.765625 189.394531 134.765625 188.417969 134.765625 187.441406 133.789062 185.488281 133.789062 183.535156 133.789062 182.558594 134.765625 180.605469 134.765625 179.628906 135.742188 177.675781 135.742188 175.722656 134.765625 175.722656 134.765625 173.769531 134.765625 171.816406 137.695312 170.839844 136.71875 170.839844 134.765625 168.886719 134.765625 168.886719 132.8125 168.886719 131.835938 167.910156 130.859375 164.980469 130.859375 164.003906 130.859375 163.027344 130.859375 162.050781 131.835938 161.074219 130.859375 159.121094 130.859375 158.144531 131.835938 156.191406 134.765625 154.238281 134.765625 154.238281 136.71875 156.191406 138.671875 156.191406 138.671875 156.191406 139.648438 156.191406 141.601562 154.238281 142.578125 154.238281 142.578125 153.261719 144.53125 154.238281 146.484375 154.238281 147.460938 155.214844 149.414062 154.238281 150.390625 153.261719 150.390625 153.261719 151.367188 154.238281 152.34375 153.261719 153.320312 154.238281 154.296875 153.261719 155.273438 154.238281 156.25 154.238281 158.203125 154.238281 159.179688 152.285156 160.15625 150.332031 158.203125 149.355469 159.179688 148.378906 158.203125 147.402344 159.179688 147.402344 160.15625 146.425781 160.15625 145.449219 159.179688 145.449219 160.15625 144.472656 160.15625 143.496094 160.15625 142.519531 159.179688 139.589844 159.179688 139.589844 160.15625 136.660156 161.132812 134.707031 162.109375 133.730469 161.132812 132.753906 162.109375 132.753906 162.109375 130.800781 162.109375 128.847656 164.0625 128.847656 165.039062 128.847656 166.015625 129.824219 166.015625 130.800781 167.96875 129.824219 168.945312 128.847656 169.921875 128.847656 168.945312 127.871094 166.992188 126.894531 166.992188 127.871094 167.96875 126.894531 168.945312 126.894531 169.921875 127.871094 169.921875 126.894531 170.898438 126.894531 172.851562 127.871094 173.828125 126.894531 174.804688 125.917969 174.804688 124.941406 174.804688 122.988281 172.851562 122.988281 172.851562 122.011719 170.898438 120.058594 170.898438 118.105469 170.898438 117.128906 169.921875 116.152344 168.945312 114.199219 169.921875 113.222656 169.921875 112.246094 171.875 113.222656 172.851562 112.246094 174.804688 110.292969 173.828125 110.292969 174.804688 108.339844 175.78125 107.363281 173.828125 107.363281 172.851562 106.386719 169.921875 104.433594 169.921875 103.457031 170.898438 102.480469 171.875 101.503906 171.875 99.5507813 172.851562 99.5507813 173.828125 97.5976563 173.828125 98.5742188 175.78125 98.5742188 176.757812 99.5507813 176.757812 100.527344 177.734375 101.503906 178.710938 99.5507813 178.710938 98.5742188 179.6875 99.5507813 181.640625 99.5507813 182.617188 99.5507813 183.59375 98.5742188 184.570312"></polygon>
                        </g>
                    </g>
                </g>
            </g>
        </g>
        <polygon id="多边形" fill="#ECECEC" points="252.148437 217.03125 276.074219 215.421217 277.656229 217.03125 329.785156 223.77156 331.362392 241.203267 337.597656 252.1875 345.502182 257.781084 343.542486 272.695313 345.502182 283.4375 341.850163 292.624407 329.785156 303.139996 325.551308 311.757813 319.042969 315.390411 313.183594 315.664063 302.441406 320.296604 288.769531 320.296604 276.074219 326.702706 243.57252 326.702706 235.570688 323.476563 236.035156 307.851563 240.917969 305.898438 237.834847 295.15625 245.33671 281.720608 242.26889 272.695313 238.964844 272.695313 235.570688 256.447317 238.964844 254.140625 237.834847 248.28125 238.964844 244.900878 243.57252 241.203267 247.02826 232.65625 247.02826 221.639541"></polygon>
        <polygon id="多边形" fill="#E2E2E2" points="300.79838 251 305.77724 252.655014 316.514522 269.243266 317.766946 291.05134 311.316279 297.266545 305.371094 300.039063 301.621635 305.531955 296.211976 305.531955 293.909147 310.578098 289.440899 312.441215 286.816406 312.441215 285.308269 308.335244 268.08648 309.135529 265.332031 300.783454 255 284.039867 258.007812 256.870024 268.120531 252.1875"></polygon>
        <polygon id="多边形" fill="#D8D8D8" points="298.341354 258.122449 307.324219 266.163475 306.091593 291.883841 302.441406 295.15625 270.469673 296.132813 268.120531 284.237986 268.120531 262.929688 271.941974 259.511719"></polygon>
        <polygon id="多边形" fill="#CECECE" points="297.597374 262.929688 301.63949 266.798615 301.63949 287.34375 300 289.296875 285.142684 289.296875 280.957031 291.048721 277.014422 291.048721 274.261868 287.34375 274.261868 264.662606 275.802999 263.911608"></polygon>
        <polygon id="多边形" fill="#C4C4C4" points="296.582031 267.8125 297.150934 278.615388 298.2281 278.884288 298.2281 286.099977 281.324224 286.749834 280.957031 279.931918 282.910156 279.53125 282.371477 269.387582 285.551029 267.8125"></polygon>
    </g>
</svg>