<?xml version="1.0" encoding="UTF-8"?>
<svg width="488px" height="372px" viewBox="0 0 488 372" version="1.1" xmlns="http://www.w3.org/2000/svg" xmlns:xlink="http://www.w3.org/1999/xlink">
    <polygon fill="#F6F6F6" points="372.271822 11.4029335 377.861495 4.11399952 396.59808 -2.84217094e-14 413.482986 4.92494361 432.006417 44.0913427 443.327749 44.9856904 453.612747 50.3070594 457.637312 63.4092535 469.263833 61.7994276 471.276115 58.4009063 487.284939 50.3070594 476.482984 91.1563916 468.28005 89.6583592 462.360324 95.1672779 464.970964 110.8544 463.942464 115.773313 457.637312 119.490114 454.556535 115.773313 453.299726 122.123181 450.781901 122.669624 449.130441 126.102065 441.186132 128.053879 443.327749 132.376932 442.156206 134.995308 434.523915 134.302744 432.006417 131.625319 429.532113 133.048354 424.168513 141.530527 410.830715 153.770822 401.56171 156.734438 394.293274 162.726759 386.751381 166.984931 386.751381 163.336701 390.561233 161.474481 387.090615 159.282654 394.607479 147.283326 390.956091 144.476864 386.419193 144.476864 381.042261 151.337616 372.916746 155.50471 371.978165 159.909373 365.161758 165.141307 361.36078 162.726759 358.230563 168.316241 361.673802 172.60911 368.268826 172.60911 372.271822 177.859891 370.518392 178.249164 370.518392 181.641246 374.899659 183.299765 379.55731 177.5 385.731755 175.828762 400.921692 178.869544 399.672991 185.348206 394.990037 185.348206 384.747973 191.345695 384.747973 193.496122 378.351212 198.525528 372.942583 206.306446 382.05428 212.183997 389.047136 228.874763 392.269667 230.761872 393.065407 233.703694 396.016754 234.042362 398.878667 248.896971 397.470069 248.896971 396.121339 247.466015 390.956091 250.342177 396.121339 255.224481 397.439602 253.220308 401.039351 253.912272 402.781447 256.342416 400.71208 259.338795 399.057536 258.824231 398.699797 264.950513 396.970069 265.414215 396.374995 269.303183 396.59808 273.580968 392.269667 276.264011 390.235816 277.681752 388.264446 280.214301 387.502834 285.030688 383.756366 287.777987 384.139254 290.358097 380.060756 294.401768 379.560756 299.673957 382.05428 300.27792 380.395117 303.383967 356.620737 322.046506 352.514846 328.315049 329.454925 333.502266 325.668197 331.71357 322.635523 336.85607 295.089614 344.741235 292.40657 347.767112 295.939244 352.015264 290.463462 353.813864 287.666528 346.813797 289.768245 343.027069 267.00346 340.686859 260.346311 336.26989 260.346311 327.548284 249.234338 323.081081 244.675101 323.922035 240.600328 327.548284 216.029275 329.075244 214.813671 340.978178 208.792097 340.478178 207.42113 336.26989 203.240103 337.392678 199.617976 337.392678 197.29269 331.71357 190.57847 329.075244 194.967386 321.11555 189.512079 319.652432 189.512079 310.696399 177.661758 310.696399 178.913845 301.931791 189.512079 290.358097 190.57847 274.967207 183.620607 265.895321 177.661758 271.634757 166.430505 265.895321 148.273281 276.264011 132.063086 274.967207 128.249046 263.161817 112.67327 259.338795 106.11394 267.096947 103.833353 263.877295 105.041581 259.338795 80.4908777 256.588362 47.8919032 224.928452 41.7698095 228.774147 31.3017529 215.224779 26.4722752 214.062127 23.9681016 197.516694 27.2324708 196.443477 28.0261793 199.844799 30.7036509 199.301114 30.7036509 191.345695 29.0211662 186.65037 29.691927 182.491653 32.8668614 180.792392 27.2324708 176.906932 26.4722752 167.581829 13.012342 160.177677 13.012342 153.183023 3.17451705 144.973766 3.17451705 142.47267 7.84420346 142.47267 7.84420346 129.797658 0.715060816 128.053879 0.715060816 118.295959 3.62679645 118.718007 4.38582973 114.748744 7.84420346 111.756235 14.6221679 110.228357 21.0265571 110.228357 21.0265571 113.140753 27.2324708 113.140753 31.6147746 108.663248 37.7167155 109.244574 60.0103148 102.223945 62.1567493 95.7846411 66.3516545 92.0714562 66.3516545 76.7118909 64.0795969 72.9787741 79.5965299 70.9217744 84.5154424 74.1861436 83.7105295 70.0274267 92.9670284 52.811233 106.11394 58.4009063 112.67327 56.6271697 112.67327 46.5450397 116.130634 43.3311472 121.958853 43.3311472 124.407486 36.7576914 132.676067 37.4731696 133.563908 44.0913427 139.875566 52.2746244 148.909992 55.9724335 152.955247 67.6341092 151.502087 76.7118909 147.969413 80.7148819 149.775484 84.4604276 169.709216 90.4249539 182.643965 100.370924 189.512079 117.293704 226.034063 122.123181 255.246423 134.302744 274.922073 127.310398 291.320753 127.310398 299.036935 123.905481 304.324706 118.295959 312.126938 114.476508 307.405157 107.786475 312.126938 99.10549 316.425419 99.10549 325.668197 102.223945 332.920522 95.1672779 341.50626 95.1585977 348.952377 84.4604276 366.723277 79.5294589 373.702778 80.9831863 362.970606 66.4500358 358.230563 66.4500358 354.631102 70.9217744 350.532372 68.6860912 346.106049 68.6860912 343.328924 70.9217744 339.976153 67.6341092 339.976153 64.9288845 348.571607 45.6117338 356.620737 48.608795 366.723277 41.654526 366.32441 38.9041259 372.942583 23.1249077 375.96928 20.0508413 375.96928 13.0881271 372.271822 13.0881271"></polygon>
    <polygon fill="#C4C4C4" points="312.931851 262.434482 317.995409 261.322592 320.160498 263.440203 323.729267 260.70084 324.558371 265.277934 329.030351 269.774302 329.030351 274.055786 324.159729 281.66762 327.838428 293.346053 326.883675 302.155378 320.160498 301.643223 317.172367 306.552209 312.300693 303.95513 310.133916 308.854182 306.090091 309.176008 304.148931 304.670847 304.558103 300.202937 306.908343 298.564476 304.148931 297.542992 304.591406 294.436589 298.999358 292.630575 295.089614 295.816694 288.426723 295.816694 287.278321 292.630575 289.097484 288.538934 288.203136 285.309082 283.790026 285.309082 288.185476 281.66762 287.278321 265.802074 289.40615 261.004314 293.799586 259.785655 298.338515 260.70084 298.999358 256.973797 308.366117 258.789091"></polygon>
    <polygon fill="#C4C4C4" points="327.37575 239.193298 344.354727 246.871629 343.697412 250.149058 346.358097 258.531254 341.61732 258.531254 327.37575 265.662083 326.165493 264.68937 324.915181 257.746197 320.241733 261.22995 318.093265 259.285655 313.378314 260.285655 309.516538 256.973797 297.3702 254.918734 296.878472 258.531254 294.006225 258.102711 288.061424 259.285655 286.432366 263.331448 280.914202 257.746197 280.914202 252.980503 295.089614 249.420865 295.724482 243.128428 291.40503 239.193298 290.662191 231.605246 296.411038 230.220519 292.40657 225.048354 302.437515 225.048354 307.99405 231.605246 314.178863 234.095516 324.558371 234.095516"></polygon>
    <polygon fill="#C4C4C4" points="356.620737 322.046506 352.514846 328.315049 329.454925 333.502266 325.668197 331.71357 322.635523 336.85607 295.089614 344.741235 292.40657 347.767112 295.939244 352.015264 290.463462 353.813864 287.666528 346.813797 289.768245 343.027069 305.777069 328.315049 305.777069 323.046506 312.931851 306.322204 317.627176 309.176008 321.066724 303.335025 334.440913 305.37503 328.595492 310.202447 332.026175 313.330708 341.121406 310.202447 345.128369 312.440377 345.128369 309.176008 350.58389 309.980921 354.384868 312.440377"></polygon>
    <polygon fill="#C4C4C4" points="464.977146 111.11555 463.948646 116.034462 457.643495 119.751264 454.562717 116.034462 453.305908 122.384331 450.788083 122.930773 449.136623 126.363215 441.192314 128.315028 443.333931 132.638082 442.162389 135.256457 434.530098 134.563894 432.012599 131.886468 429.538295 133.309504 424.174696 141.791677 423.826207 138.479943 419.461483 130.49506 420.359303 127.982815 416.796137 123.394552 415.058254 117.10966 411.955 119.102557 405.467961 113.892421 403.732827 114.79238 403.732827 111.473015 399.846196 102.971441 393.987142 106.365463 391.966742 99.5540419 392.894662 95.7531284 389.463664 88.7175576 396.112665 91.1563916 397.108121 86.9815076 399.632284 84.7380275 404.728283 84.3320527 405.094837 89.1346863 408.99415 93.2518841 413.851942 93.2518841 418.515533 91.9731478 420.587119 94.9945042 422.988741 95.7531284 425.459121 94.3024984 428.634704 95.3921651 430.314989 100.882423 433.371582 100.721153 435.488573 106.135469 439.137585 105.497712 440.628103 101.529047 445.478061 111.473015 449.136623 110.201912 448.629236 108.651481 453.305908 106.564703 457.643495 108.651481"></polygon>
    <polygon fill="#F6F6F6" points="397 301.610316 401.707535 304.84653 397 324.230449 393.384143 330.1282 392.713504 336.85607 389.747407 336.85607 389.000259 333.203135 386.178929 331.513514 383.719473 325.453136 384.256082 319.192702 391.709933 304.84653"></polygon>
    <polygon fill="#F6F6F6" points="403.227479 251.588795 402.366623 253.220308 398.439602 252.220308 400.399058 251.342177 400.399058 250.342177"></polygon>
    <polygon fill="#C4C4C4" points="280.914202 234.928102 287.396361 239.682052 290.326886 240.534513 293.962369 243.84241 293.627318 248.309867 279.259659 251.634599 279.259659 258.514885 285.612732 265.285003 285.831593 269.271719 283.790026 274.034672 279.527963 268.799592 277.74596 264.35572 274.244983 265.662083 273.008643 263.52926 269.636762 263.922013 268.767352 266.918078 266.25793 266.918078 264.101286 268.799592 256.722096 265.087346 255.246423 262.057072 253.311615 262.057072 252.622194 259.379329 256.722096 254.909886 255.246423 253.480503 256.722096 251.987854 260.455998 253.980503 263.241807 252.980503 264.581672 256.089125 267.858469 256.089125 272.279749 248.309867 275.41603 248.731911 281.62968 238.553954 279.527963 236.431074"></polygon>
    <polygon fill="#C4C4C4" points="329.640282 148.615272 314.65347 153.022895 311.502277 158.344264 308.428311 158.344264 303.720069 170.178317 299.968453 173.033926 302.459568 178.310577 299.139705 186.028742 299.139705 196.41301 300.66281 199.567241 296.386418 209.187932 323.932328 200.915216 325.278883 191.927021 323.215776 188.715601 325.765741 186.829239 328.31779 178.869544 325.765741 173.033926 324.111197 173.033926 324.111197 169.121154 326.491816 166.303959 325.765741 164.586455 328.31779 162.551103 331.131827 163.933938 332.120685 158.344264 331.131827 155.50471 325.765741 154.322535 331.131827 151.189482"></polygon>
    <polygon fill="#C4C4C4" points="361.36078 162.726759 359.929824 159.551634 357.108161 157.986525 356.57602 151.901498 354.608455 158.544152 352.02416 157.986525 351.574148 160.155318 352.663248 163.299833 350.718042 165.519845 355.596943 168.421583 358.230563 168.316241"></polygon>
    <polygon fill="#C4C4C4" points="348.929467 144.156925 352.119518 146.80103 354.608455 147.391189 353.806055 148.37404 354.017645 150.273843 355.134513 151.901498 350.494455 153.428754 350.252704 155.058206 351.475304 155.982905 351.112463 157.582287 348.929467 157.763778 347.516463 159.269394 346.546008 157.986525 343.693214 157.763778 342.663417 158.448418 340.85691 156.76536 342.210083 156.243988 340.527025 154.180789 341.494902 153.428754 343.693214 153.022895 344.875118 151.368352 343.206694 148.595196 345.063974 148.004208 346.885816 146.250148 349.241135 146.427332"></polygon>
    <polygon fill="#F6F6F6" points="284.089137 357.247198 296.975853 355.32435 300.679287 356.874083 300.679287 360.556284 296.975853 365 287.666528 371.307326 278.0176 370.452533 277.02379 362.767484"></polygon>
</svg>