<?xml version="1.0" encoding="UTF-8"?>
<svg width="560px" height="281px" viewBox="0 0 560 281" version="1.1" xmlns="http://www.w3.org/2000/svg" xmlns:xlink="http://www.w3.org/1999/xlink">
    <polygon fill="#F6F6F6" points="559.157604 55.2373272 429.302444 25.2483871 331.808295 55.2373272 299.520737 43.8511521 272.765899 67.5589862 279.260829 85.4382665 256.648848 99.4456221 262.475576 108.052074 250.447926 108.265899 254.189862 121.68341 272.765899 108.968664 320.84977 123.695853 318.845161 129.862212 298.085253 126.975576 280.348848 120.427189 252.853456 125.478802 236.656221 147.796774 236.656221 161.080645 255.365899 175.620737 276.962212 175.219816 294.335484 238.592166 307.183871 238.271429 329.135484 202.45576 328.280184 186.552535 345.760369 162.951613 332.877419 161.561751 318.390783 138.041014 328.921659 145.826728 333.946544 159.102765 359.017512 146.620737 342.232258 134.940553 369.708756 141.622581 387.563134 169.794009 391.358525 157.178341 407.689401 146.620737 418.514286 156.670507 422.664977 175.781106 415.306912 172.680645 429.579724 192.753456 459.996313 197.858525 465.769585 195.078802 432.412903 189.439171 428.831336 172.359908 422.664977 166.158986 423.859908 161.775576 430.62212 167.762673 438.079263 160.439171 436.529032 155.441014 432.412903 150.710138 443.317972 138.629032 444.868203 114.047005 460.905069 107.196774 461.493088 114.652442 463.919363 119.732258 463.919363 124.623502 468.288614 124.623502 470.042485 122.699078 469.511521 118.048387 467.079263 115.68227 473.574194 108.968664 477.957604 108.265899 487.587558 97.4984061 488.087558 90.4115207 489.450691 92.6032258 488.087558 107.864977 486.029493 108.265899 484.808039 117.623588 479.419895 121.68341 474.721427 122.699078 471.489401 125.478802 469.030415 125.211521 470.042485 130.5 487.587558 122.699078 490.493088 115.68227 488.087558 111.205991 490.974194 111.205991 495.492943 108.968664 500.195392 103.970507 494.055011 107.196774 490.493088 103.134101 492.3152 102.250377 490.974194 97.4984061 493.032258 96.3986175 490.974194 85.4382665 488.587558 87.3110599 480.84424 83.7052724 490.493088 74.7199552 511.927232 75.2452182 509.913268 73.4839273 517.186502 68.4894375 518.210138 71.381106 523.922756 67.5589862 511.688479 80.2548387 509.913268 84.4414217 511.927232 93.8633517 527.010287 74.7199552 534.460829 72.824424 548.6851 67.5589862 548.6851 61.4446644"></polygon>
    <polygon fill="#F6F6F6" points="248.523502 85.6539171 248.306611 87.8456221 250.107562 87.8456221 247.614747 90.8926267 248.699636 92.0449826 250.491911 91.5974211 252.141308 90.3314709 254.33934 90.3314709 254.33934 86.586467 255.714814 85.1995392 254.33934 83.2809116 250.491911 83.2809116 250.310835 85.4382665"></polygon>
    <polygon fill="#F6F6F6" points="259.607834 73.6262673 252.567281 79.9875576 258.394009 86.8299539 256.648848 94.4741935 266 92.2824885 266.885714 88.7416246 263.109217 86.616129"></polygon>
    <polygon fill="#F6F6F6" points="342.820276 201.707373 334.641475 206.892627 333.037788 217.022581 334.641475 222.662212 339.452535 222.394931 344.210138 205.663134"></polygon>
    <polygon fill="#F6F6F6" points="473.574194 199.520416 446.372811 217.102765 448.388479 238.699078 469.511521 233.11641 492.658065 245.701843 502.467281 244.793088 507.786175 222.61113 495.999078 211.276037 489.450691 197.270507 487.587558 209.11106 480.84424 205.930415 481.993548 201.554908"></polygon>
    <polygon fill="#F6F6F6" points="504.338249 196.735945 495.705069 187.220737 473.574194 181.4553 489.450691 194.276959"></polygon>
    <polygon fill="#F6F6F6" points="450.48894 170.970046 437.758525 177.545161 438.079263 185.242857 448.388479 186.071429"></polygon>
    <polygon fill="#F6F6F6" points="456.040553 150.54977 453.314286 162.042857 463.230415 173.38341 465.021198 169.801843"></polygon>
    <polygon fill="#F6F6F6" points="453.95576 180.405069 453.314286 190.107373 461.225806 190.107373 459.274654 182.565711"></polygon>
    <polygon fill="#F6F6F6" points="541.998157 240.890783 529.454839 257.541235 531.467281 261.524885 547.912903 244.793088"></polygon>
    <polygon fill="#F6F6F6" points="492.658065 248.802304 499.019355 248.802304 499.019355 254.575576 495.83871 254.575576"></polygon>
    <polygon fill="#F6F6F6" points="245.904147 9.55898618 226.472811 49.7235023 202.059869 58.9258065 197.285714 74.5963134 181.302304 64.1110599 172.02765 31.1552995 149.682949 24.7672811 167.029493 6.75253456 212.600922 0.87235023"></polygon>
    <polygon fill="#F6F6F6" points="162.752995 6.11105991 126.135484 6.11105991 110.090783 15.5193548 69.6778802 26.7986175 85.3562212 33.4806452 107.078341 32.8202765 137.174194 32.8926267"></polygon>
    <polygon fill="#F6F6F6" points="0.593548387 50.5064516 0.593548387 74.0193548 17.3253456 80.4608295 32.339302 72.2018433 44.018894 75.4894009 66.3903226 98.1281106 66.718894 114.379064 72.7861751 127.670507 97.1354839 150.763594 109.037327 157.712903 114.02765 155.681567 135.054839 170.221659 140.408295 169.473272 141.148848 174.899078 135.776498 181.287097 135.276498 191.052117 143.58894 206.812442 154.100922 211.917512 144.478802 265.13318 144.978802 275.370046 159.232719 280.12765 159.091244 257.3553 197.793548 217.851152 208.912442 190.374654 167.28894 164.5553 148.766359 161.935945 138.304608 167.717051 131.996774 163.593088 132.996774 157.197235 125.314747 155.681567 127.311521 147.22765 120.976959 147.22765 115.417033 151.725806 109.323502 145.693088 110.552995 136.43088 121.939171 132.160829 131.996774 133.157604 137.040553 141.569124 135.035945 130.5 144.978802 123.115838 147.697235 112.976896 168.927189 103.374654 162.40553 101.549309 161.435484 95.8640553 172.883267 92.6032258 170.175576 99.918894 181.64977 101.549309 175.288479 91.1520737 162.103687 71.7018433 157.941935 77.0930876 148.506912 66.1691244 139.045161 66.5165899 137.743318 92.0449826 114.02765 73.5193548 123.756682 62.9695853 137.762212 63.9695853 133.359908 59.078341 135.276498 49.0442396 147.651613 53.8129032 140.408295 59.078341 141.290323 63.6110599 149.060369 63.6110599 160.515668 69.1092166 167.029493 53.1525346 140.408295 35.4585253 124.352535 35.4585253 120.81659 41.6940092 127.170046 52.556682 117.769585 43.102765 119.480184 35.8516129 112.530876 34.8516129 103.210599 35.3516129 101.866359 39.7428571 105.386636 42.6940092 111.354839 41.6940092 107.078341 48.7769585 99.8082949 44.6341014 97.4373272 36.0543779 87.2115207 38.8797235 74.683871 33.3202765 66.718894 33.8202765 64.5193548 40.7428571 69.4105991 44.6341014 74.683871 40.2428571 81.5262673 50.4262673 60.6170507 46.1152074 47.1884793 48.8682028 16.4700461 43.102765"></polygon>
    <polygon fill="#F6F6F6" points="131.828571 143.921198 166.735484 152.394009 144.123502 153.428571"></polygon>
    <polygon fill="#F6F6F6" points="226.659908 58.2843318 240.291244 56.4668203 242.376037 60.3423963 233.341935 63.9695853"></polygon>
    <polygon fill="#F6F6F6" points="282.468203 16.5963134 307.886636 13.4534562 299.467281 19.3949309 302.647926 24.3930876 295.671889 21.1857143 292.143779 27.0658986"></polygon>
    <polygon fill="#C4C4C4" points="455.56192 88.9774401 459.65559 87.9056929 463.25257 88.9774401 467.079263 96.5436295 469.030415 96.5436295 471.302304 98.7018172 471.489401 100.202263 474.363016 100.202263 477.267681 99.2693822 476.11901 102.45639 474.363016 103.882488 471.302304 104.967217 471.793592 106.855868 471.489401 108.853917 470.002669 108.052157 469.511521 109.452347 464.89184 111.205991 464.00553 112.756221 456.613038 116.522532 458.716548 113.186315 456.345405 112.221659 452.941663 115.48026 450.424469 115.828696 451.075817 118.048387 452.941663 118.048387 453.661864 119.839171 455.666359 118.476037 458.148847 119.477878 452.941663 123.492567 455.666359 127.994345 457.376959 129.006912 457.376959 130.5 456.040553 131.465899 458.148847 132.619412 456.613038 135.158988 449.401355 144.191754 445.192225 145.257604 444.272345 143.935195 444.272345 145.624678 438.644719 147.341484 431.266703 143.935195 429.045161 145.043779 426.693088 144.616129 424.079949 146.0387 422.453461 145.257604 420.566644 142.062419 421.254847 136.290967 416.706108 132.619412 414.240191 133.149182 410.228571 135.915274 407.42212 134.940553 405.821997 135.915274 400.056048 135.234562 394.79425 131.465899 389.886325 130.030166 389.384831 128.363642 391.091244 127.994345 388.746341 122.912903 386.333641 121.965465 383.456461 119.151557 383.456461 116.524885 381.950081 116.524885 381.337207 115.48026 383.456461 113.769082 388.356417 112.756221 392.496067 110.058633 393.248403 108.265899 391.852075 104.967217 395.126682 104.183771 396.268373 101.137237 398.809049 101.972491 400.313911 101.137237 400.783338 98.4299539 403.062167 97.2979512 407.062735 100.202263 408.191713 101.972491 407.894953 104.967217 412.359825 105.48295 415.262913 106.855868 416.706108 109.773447 425.138153 110.058633 428.340088 111.842798 433.359203 110.584983 438.260487 110.058633 442.16827 107.690055 441.561278 105.896592 444.272345 105.896592 446.063341 104.55529 448.349759 104.55529 449.401355 103.005648 452.035731 101.972491 454.329954 102.45639 454.976767 101.137237 452.629631 98.4299539 448.349759 98.7018172 449.401355 95.67393 451.075817 96.2822501 453.966189 95.2138001 453.661864 94.0155651 455.56192 91.436561 456.613038 90.4115207"></polygon>
    <polygon fill="#C4C4C4" points="456.110168 140.713825 457.858065 140.713825 455.826728 146.005991 454.223041 143.653917"></polygon>
    <polygon fill="#C4C4C4" points="438.506912 148.785714 436.529032 150.603226 436.529032 151.832719 438.373272 152.153456 440.217512 149.69447 439.594063 148.785714"></polygon>
    <polygon fill="#C4C4C4" points="248.523502 85.6539171 248.306611 87.8456221 250.107562 87.8456221 247.614747 90.8926267 248.699636 92.0449826 250.491911 91.5974211 252.141308 90.3314709 254.33934 90.3314709 254.33934 86.586467 250.310835 85.4382665"></polygon>
</svg>