<?xml version="1.0" standalone="no"?><!DOCTYPE svg PUBLIC "-//W3C//DTD SVG 1.1//EN" "http://www.w3.org/Graphics/SVG/1.1/DTD/svg11.dtd"><svg class="icon" width="200px" height="200.00px" viewBox="0 0 1024 1024" version="1.1" xmlns="http://www.w3.org/2000/svg"><path d="M437.81688889 438.272H109.34044445v-72.81777778h255.65866666V111.04711111h72.81777778zM657.74933333 912.04266667h-72.81777778V584.81777778h328.47644445v72.81777777H657.74933333z" fill="#ffffff" /><path d="M31.90556445 85.31740445l51.49013333-51.48899556 315.29187555 315.29187556-51.48899555 51.49013333zM619.8272 669.78929778l51.48899555-51.49013333 320.60188445 320.60302222-51.48899555 51.48899555zM438.04444445 913.408h-72.81777778V657.74933333H110.70577778v-72.81777778H438.04444445zM913.408 439.52355555H586.18311111V110.93333333h72.81777778v255.77244445h254.40711111z" fill="#ffffff" /><path d="M29.67324445 942.58517333l324.5203911-324.24618666 51.46851556 51.51061333-324.52152889 324.24618667zM622.51918222 355.71143111l322.85582223-322.85582222 51.48899555 51.49013333L674.00817778 407.19928889z" fill="#ffffff" /></svg>