<?xml version="1.0" standalone="no"?><!DOCTYPE svg PUBLIC "-//W3C//DTD SVG 1.1//EN" "http://www.w3.org/Graphics/SVG/1.1/DTD/svg11.dtd"><svg class="icon" width="200px" height="200.00px" viewBox="0 0 1024 1024" version="1.1" xmlns="http://www.w3.org/2000/svg"><path d="M424.96 486.912c109.568 0 198.656-89.6 198.656-198.656 0-109.568-89.6-198.656-198.656-198.656-109.568 0-198.656 89.6-198.656 198.656 0 109.568 89.6 198.656 198.656 198.656z m183.808-32.256c12.288 2.56 27.136 7.68 39.936 7.68 81.92 0 148.992-67.072 148.992-148.992s-67.072-148.992-148.992-148.992h-7.68c19.968 37.376 32.256 79.36 32.256 124.416 0 64-24.576 123.904-64.512 165.888zM648.704 512c-22.528 0-44.544 2.56-67.072 7.68 134.144 57.344 228.864 186.368 238.592 340.48h76.8c27.136 0 49.664-22.528 49.664-49.664C946.688 646.144 812.544 512 648.704 512zM424.96 537.088c-191.488 0-347.648 156.672-347.648 347.648 0 14.848 0 49.664 49.664 49.664h596.48c49.664 0 49.664-34.816 49.664-49.664 0-191.488-156.672-347.648-348.16-347.648z m0 0" fill="#f0f8ff" /></svg>